<svg width="444" height="329" viewBox="0 0 444 329" fill="none" xmlns="http://www.w3.org/2000/svg">
<path d="M164.246 228.297H151.136V251.347H119.376V228.297H71.8965V204.677L121.416 132.277H151.146V204.267H164.256V228.297H164.246ZM119.366 204.267V190.417C119.366 187.807 119.456 184.297 119.656 179.867C119.846 175.447 119.996 173.117 120.106 172.907H119.206C117.356 177.087 115.266 180.997 112.936 184.637L99.7465 204.267H119.366Z" fill="#F1E618"/>
<path d="M258.637 191.969C258.637 213.039 255.107 228.469 248.047 238.269C240.987 248.069 230.187 252.969 215.637 252.969C201.407 252.969 190.687 247.849 183.467 237.619C176.247 227.389 172.637 212.169 172.637 191.969C172.637 170.799 176.167 155.269 183.227 145.379C190.287 135.499 201.087 130.559 215.637 130.559C229.807 130.559 240.517 135.699 247.767 145.989C255.017 156.289 258.637 171.609 258.637 191.969ZM204.637 191.969C204.637 205.439 205.477 214.689 207.167 219.739C208.847 224.789 211.677 227.309 215.637 227.309C219.657 227.309 222.487 224.699 224.147 219.489C225.807 214.279 226.627 205.099 226.627 191.959C226.627 178.769 225.787 169.519 224.107 164.229C222.427 158.939 219.597 156.289 215.637 156.289C211.677 156.289 208.847 158.839 207.167 163.949C205.487 169.059 204.637 178.399 204.637 191.969Z" fill="#F1E618"/>
<path d="M359.707 228.297H346.597V251.347H314.837V228.297H267.357V204.677L316.877 132.277H346.607V204.267H359.717V228.297H359.707ZM314.837 204.267V190.417C314.837 187.807 314.927 184.297 315.127 179.867C315.317 175.447 315.467 173.117 315.577 172.907H314.677C312.827 177.087 310.737 180.997 308.407 184.637L295.217 204.267H314.837Z" fill="#F1E618"/>
<path d="M24.166 158.699H72.306" stroke="black" stroke-width="2.1628" stroke-miterlimit="10" stroke-linecap="round" stroke-linejoin="round"/>
<path d="M83.8555 158.699H94.1355" stroke="black" stroke-width="2.1628" stroke-miterlimit="10" stroke-linecap="round" stroke-linejoin="round"/>
<path d="M15.4453 145.148H101.625" stroke="black" stroke-width="2.1628" stroke-miterlimit="10" stroke-linecap="round" stroke-linejoin="round"/>
<path d="M8.35563 145.148H1.26562" stroke="black" stroke-width="2.1628" stroke-miterlimit="10" stroke-linecap="round" stroke-linejoin="round"/>
<path d="M15.4453 132.277H44.0553" stroke="black" stroke-width="2.1628" stroke-miterlimit="10" stroke-linecap="round" stroke-linejoin="round"/>
<path d="M51.7148 132.277H111.805" stroke="black" stroke-width="2.1628" stroke-miterlimit="10" stroke-linecap="round" stroke-linejoin="round"/>
<path d="M364.426 266.18H415.936" stroke="black" stroke-width="2.1628" stroke-miterlimit="10" stroke-linecap="round" stroke-linejoin="round"/>
<path d="M424.316 266.18H431.766" stroke="black" stroke-width="2.1628" stroke-miterlimit="10" stroke-linecap="round" stroke-linejoin="round"/>
<path d="M374.715 252.637H442.215" stroke="black" stroke-width="2.1628" stroke-miterlimit="10" stroke-linecap="round" stroke-linejoin="round"/>
<path d="M369.566 252.637H364.426" stroke="black" stroke-width="2.1628" stroke-miterlimit="10" stroke-linecap="round" stroke-linejoin="round"/>
<path d="M364.426 239.758H395.456" stroke="black" stroke-width="2.1628" stroke-miterlimit="10" stroke-linecap="round" stroke-linejoin="round"/>
<path d="M401.016 239.758H424.316" stroke="black" stroke-width="2.1628" stroke-miterlimit="10" stroke-linecap="round" stroke-linejoin="round"/>
<path d="M170.405 227.84H157.295V250.89H125.535V227.84H78.0547V204.22L127.575 131.82H157.305V203.81H170.415V227.84H170.405ZM125.535 203.82V189.97C125.535 187.36 125.625 183.85 125.825 179.42C126.015 175 126.165 172.67 126.275 172.46H125.375C123.525 176.64 121.435 180.55 119.105 184.19L105.915 203.82H125.535Z" stroke="black" stroke-width="3.2675" stroke-miterlimit="10"/>
<path d="M264.795 191.519C264.795 212.589 261.265 228.019 254.205 237.819C247.145 247.619 236.345 252.519 221.795 252.519C207.565 252.519 196.845 247.399 189.625 237.169C182.405 226.939 178.795 211.719 178.795 191.519C178.795 170.349 182.325 154.819 189.385 144.929C196.445 135.049 207.245 130.109 221.795 130.109C235.965 130.109 246.675 135.249 253.925 145.539C261.175 155.829 264.795 171.159 264.795 191.519ZM210.805 191.519C210.805 204.989 211.645 214.239 213.335 219.289C215.015 224.339 217.845 226.859 221.805 226.859C225.825 226.859 228.655 224.249 230.315 219.039C231.975 213.829 232.795 204.649 232.795 191.509C232.795 178.319 231.955 169.069 230.275 163.779C228.595 158.489 225.765 155.839 221.805 155.839C217.845 155.839 215.015 158.389 213.335 163.499C211.645 168.609 210.805 177.949 210.805 191.519Z" stroke="black" stroke-width="3.2675" stroke-miterlimit="10"/>
<path d="M365.866 227.84H352.756V250.89H320.996V227.84H273.516V204.22L323.036 131.82H352.766V203.81H365.876V227.84H365.866ZM320.996 203.82V189.97C320.996 187.36 321.086 183.85 321.286 179.42C321.476 175 321.626 172.67 321.736 172.46H320.836C318.986 176.64 316.896 180.55 314.566 184.19L301.376 203.82H320.996Z" stroke="black" stroke-width="3.2675" stroke-miterlimit="10"/>
<path d="M386.904 155.759V144.719" stroke="black" stroke-width="2.1628" stroke-miterlimit="10" stroke-linecap="round" stroke-linejoin="round"/>
<path d="M379.195 158.948L371.395 151.148" stroke="black" stroke-width="2.1628" stroke-miterlimit="10" stroke-linecap="round" stroke-linejoin="round"/>
<path d="M376.005 166.66H364.965" stroke="black" stroke-width="2.1628" stroke-miterlimit="10" stroke-linecap="round" stroke-linejoin="round"/>
<path d="M379.195 174.359L371.395 182.169" stroke="black" stroke-width="2.1628" stroke-miterlimit="10" stroke-linecap="round" stroke-linejoin="round"/>
<path d="M386.904 177.559V188.589" stroke="black" stroke-width="2.1628" stroke-miterlimit="10" stroke-linecap="round" stroke-linejoin="round"/>
<path d="M394.615 174.359L402.415 182.169" stroke="black" stroke-width="2.1628" stroke-miterlimit="10" stroke-linecap="round" stroke-linejoin="round"/>
<path d="M397.805 166.66H408.845" stroke="black" stroke-width="2.1628" stroke-miterlimit="10" stroke-linecap="round" stroke-linejoin="round"/>
<path d="M394.615 158.948L402.415 151.148" stroke="black" stroke-width="2.1628" stroke-miterlimit="10" stroke-linecap="round" stroke-linejoin="round"/>
<path d="M40.6758 210.73V202.75" stroke="black" stroke-width="2.1628" stroke-miterlimit="10" stroke-linecap="round" stroke-linejoin="round"/>
<path d="M35.1068 213.031L29.4668 207.391" stroke="black" stroke-width="2.1628" stroke-miterlimit="10" stroke-linecap="round" stroke-linejoin="round"/>
<path d="M32.7964 218.602H24.8164" stroke="black" stroke-width="2.1628" stroke-miterlimit="10" stroke-linecap="round" stroke-linejoin="round"/>
<path d="M35.1068 224.172L29.4668 229.822" stroke="black" stroke-width="2.1628" stroke-miterlimit="10" stroke-linecap="round" stroke-linejoin="round"/>
<path d="M40.6758 226.48V234.46" stroke="black" stroke-width="2.1628" stroke-miterlimit="10" stroke-linecap="round" stroke-linejoin="round"/>
<path d="M46.2461 224.172L51.8861 229.822" stroke="black" stroke-width="2.1628" stroke-miterlimit="10" stroke-linecap="round" stroke-linejoin="round"/>
<path d="M48.5566 218.602H56.5366" stroke="black" stroke-width="2.1628" stroke-miterlimit="10" stroke-linecap="round" stroke-linejoin="round"/>
<path d="M46.2461 213.031L51.8861 207.391" stroke="black" stroke-width="2.1628" stroke-miterlimit="10" stroke-linecap="round" stroke-linejoin="round"/>
<path d="M256.596 45.9097V37.9297" stroke="black" stroke-width="2.1628" stroke-miterlimit="10" stroke-linecap="round" stroke-linejoin="round"/>
<path d="M251.027 48.2181L245.387 42.5781" stroke="black" stroke-width="2.1628" stroke-miterlimit="10" stroke-linecap="round" stroke-linejoin="round"/>
<path d="M248.726 53.7891H240.746" stroke="black" stroke-width="2.1628" stroke-miterlimit="10" stroke-linecap="round" stroke-linejoin="round"/>
<path d="M251.027 59.3594L245.387 64.9994" stroke="black" stroke-width="2.1628" stroke-miterlimit="10" stroke-linecap="round" stroke-linejoin="round"/>
<path d="M256.596 61.668V69.648" stroke="black" stroke-width="2.1628" stroke-miterlimit="10" stroke-linecap="round" stroke-linejoin="round"/>
<path d="M262.166 59.3594L267.806 64.9994" stroke="black" stroke-width="2.1628" stroke-miterlimit="10" stroke-linecap="round" stroke-linejoin="round"/>
<path d="M264.477 53.7891H272.457" stroke="black" stroke-width="2.1628" stroke-miterlimit="10" stroke-linecap="round" stroke-linejoin="round"/>
<path d="M262.166 48.2181L267.806 42.5781" stroke="black" stroke-width="2.1628" stroke-miterlimit="10" stroke-linecap="round" stroke-linejoin="round"/>
<path d="M354.045 267.547H80.2852V310.647H354.045V267.547Z" stroke="black" stroke-width="2.4187" stroke-miterlimit="10" stroke-linecap="round" stroke-linejoin="round"/>
<path d="M101.625 112.858V78.3281H281.115V155.048" stroke="black" stroke-width="2.1628" stroke-miterlimit="10" stroke-linecap="round" stroke-linejoin="round"/>
<path d="M217.855 53.7891V97.0191H336.875V116.689" stroke="black" stroke-width="2.1628" stroke-miterlimit="10" stroke-linecap="round" stroke-linejoin="round"/>
<path d="M101.626 121.419C103.989 121.419 105.906 119.503 105.906 117.139C105.906 114.776 103.989 112.859 101.626 112.859C99.2619 112.859 97.3457 114.776 97.3457 117.139C97.3457 119.503 99.2619 121.419 101.626 121.419Z" stroke="black" stroke-width="2.1628" stroke-miterlimit="10" stroke-linecap="round" stroke-linejoin="round"/>
<path d="M217.856 53.7866C220.22 53.7866 222.136 51.8703 222.136 49.5066C222.136 47.1428 220.22 45.2266 217.856 45.2266C215.492 45.2266 213.576 47.1428 213.576 49.5066C213.576 51.8703 215.492 53.7866 217.856 53.7866Z" stroke="black" stroke-width="2.1628" stroke-miterlimit="10" stroke-linecap="round" stroke-linejoin="round"/>
<path d="M336.876 125.697C339.239 125.697 341.156 123.78 341.156 121.417C341.156 119.053 339.239 117.137 336.876 117.137C334.512 117.137 332.596 119.053 332.596 121.417C332.596 123.78 334.512 125.697 336.876 125.697Z" stroke="black" stroke-width="2.1628" stroke-miterlimit="10" stroke-linecap="round" stroke-linejoin="round"/>
<path d="M281.116 164.318C283.48 164.318 285.396 162.402 285.396 160.038C285.396 157.674 283.48 155.758 281.116 155.758C278.752 155.758 276.836 157.674 276.836 160.038C276.836 162.402 278.752 164.318 281.116 164.318Z" stroke="black" stroke-width="2.1628" stroke-miterlimit="10" stroke-linecap="round" stroke-linejoin="round"/>
<path d="M73.7162 245.816L63.5762 255.956" stroke="black" stroke-width="2.1628" stroke-miterlimit="10" stroke-linecap="round" stroke-linejoin="round"/>
<path d="M63.5762 245.816L73.7162 255.956" stroke="black" stroke-width="2.1628" stroke-miterlimit="10" stroke-linecap="round" stroke-linejoin="round"/>
<path d="M78.7765 98.6602L68.6465 108.79" stroke="black" stroke-width="2.1628" stroke-miterlimit="10" stroke-linecap="round" stroke-linejoin="round"/>
<path d="M68.6465 98.6602L78.7765 108.79" stroke="black" stroke-width="2.1628" stroke-miterlimit="10" stroke-linecap="round" stroke-linejoin="round"/>
<path d="M407.486 213.539L397.346 223.669" stroke="black" stroke-width="2.1628" stroke-miterlimit="10" stroke-linecap="round" stroke-linejoin="round"/>
<path d="M397.346 213.539L407.486 223.669" stroke="black" stroke-width="2.1628" stroke-miterlimit="10" stroke-linecap="round" stroke-linejoin="round"/>
<path d="M119.886 40.82C116.656 40.82 113.696 41.98 111.396 43.91C109.046 36.85 102.406 31.75 94.5562 31.75C85.7662 31.75 78.4962 38.14 77.0662 46.52C76.1362 46.25 75.1662 46.1 74.1562 46.1C68.3162 46.1 63.5762 50.84 63.5762 56.68C63.5762 62.05 67.5862 66.48 72.7762 67.16V67.26H119.886C127.186 67.26 133.106 61.34 133.106 54.04C133.106 46.74 127.186 40.82 119.886 40.82Z" stroke="black" stroke-width="2.2614" stroke-miterlimit="10" stroke-linecap="round" stroke-linejoin="round"/>
<path d="M365.016 108.078C367.366 108.078 369.516 108.918 371.186 110.318C372.886 105.188 377.716 101.488 383.426 101.488C389.806 101.488 395.096 106.128 396.126 112.218C396.796 112.028 397.506 111.918 398.246 111.918C402.486 111.918 405.936 115.358 405.936 119.608C405.936 123.508 403.026 126.728 399.246 127.218V127.288H365.016C359.716 127.288 355.406 122.988 355.406 117.678C355.416 112.378 359.716 108.078 365.016 108.078Z" stroke="black" stroke-width="2.1628" stroke-miterlimit="10" stroke-linecap="round" stroke-linejoin="round"/>
<path d="M412.206 289.768C410.236 289.768 408.436 290.478 407.036 291.648C405.606 287.348 401.556 284.238 396.776 284.238C391.426 284.238 386.986 288.128 386.126 293.238C385.566 293.078 384.966 292.988 384.356 292.988C380.796 292.988 377.906 295.878 377.906 299.438C377.906 302.708 380.346 305.408 383.516 305.818V305.878H412.216C416.666 305.878 420.276 302.268 420.276 297.818C420.256 293.378 416.656 289.768 412.206 289.768Z" stroke="black" stroke-width="2.1628" stroke-miterlimit="10" stroke-linecap="round" stroke-linejoin="round"/>
<path d="M22.6647 272.77C25.0147 272.77 27.1647 273.61 28.8347 275.01C30.5347 269.88 35.3647 266.18 41.0747 266.18C47.4547 266.18 52.7447 270.82 53.7747 276.91C54.4447 276.72 55.1547 276.61 55.8947 276.61C60.1347 276.61 63.5847 280.05 63.5847 284.3C63.5847 288.2 60.6747 291.42 56.8947 291.91V291.98H22.6647C17.3647 291.98 13.0547 287.68 13.0547 282.37C13.0647 277.07 17.3647 272.77 22.6647 272.77Z" stroke="black" stroke-width="2.1628" stroke-miterlimit="10" stroke-linecap="round" stroke-linejoin="round"/>
<path d="M133.105 34.4783C133.105 34.4783 193.545 -14.8017 275.665 7.89832C361.925 31.7483 379.195 93.2583 379.195 93.2583" stroke="black" stroke-width="2.1628" stroke-miterlimit="10" stroke-linecap="round" stroke-linejoin="round" stroke-dasharray="3.27 3.27"/>
<path d="M41.845 177.699C18.415 181.329 6.63497 231.059 32.995 250.799" stroke="black" stroke-width="2.0166" stroke-miterlimit="10" stroke-linecap="round" stroke-linejoin="round" stroke-dasharray="3.05 3.05"/>
<path d="M336.875 321.188C336.875 321.188 377.015 338.738 394.605 314.258" stroke="black" stroke-width="2.1628" stroke-miterlimit="10" stroke-linecap="round" stroke-linejoin="round" stroke-dasharray="3.27 3.27"/>
<path d="M145.926 121.418V96.0781" stroke="black" stroke-width="2.1628" stroke-miterlimit="10" stroke-linecap="round" stroke-linejoin="round"/>
<path d="M139.805 121.419V108.789" stroke="black" stroke-width="2.1628" stroke-miterlimit="10" stroke-linecap="round" stroke-linejoin="round"/>
<path d="M239.086 127.29V108.75" stroke="black" stroke-width="2.1628" stroke-miterlimit="10" stroke-linecap="round" stroke-linejoin="round"/>
<path d="M232.135 125.71V118.02" stroke="black" stroke-width="2.1628" stroke-miterlimit="10" stroke-linecap="round" stroke-linejoin="round"/>
<path d="M225.965 125.709V112.859" stroke="black" stroke-width="2.1628" stroke-miterlimit="10" stroke-linecap="round" stroke-linejoin="round"/>
<path d="M151.805 121.42V108.75" stroke="black" stroke-width="2.1628" stroke-miterlimit="10" stroke-linecap="round" stroke-linejoin="round"/>
<path d="M319.816 124.947V119.277" stroke="black" stroke-width="2.1628" stroke-miterlimit="10" stroke-linecap="round" stroke-linejoin="round"/>
<path d="M313.695 124.947V111.137" stroke="black" stroke-width="2.1628" stroke-miterlimit="10" stroke-linecap="round" stroke-linejoin="round"/>
<path d="M325.695 124.95V115.09" stroke="black" stroke-width="2.1628" stroke-miterlimit="10" stroke-linecap="round" stroke-linejoin="round"/>
</svg>
