<svg width="76" height="101" viewBox="0 0 76 101" fill="none" xmlns="http://www.w3.org/2000/svg">
<path d="M0.0390625 12.7227C0.0390625 9.33724 1.27604 6.40755 3.75 3.93359C6.22396 1.45964 9.15365 0.222656 12.5391 0.222656H50.0391L75.0391 25.2227V87.7227C75.0391 91.1081 73.8021 94.0378 71.3281 96.5117C68.8542 98.9857 65.9245 100.223 62.5391 100.223H12.5391C9.15365 100.223 6.22396 98.9857 3.75 96.5117C1.27604 94.0378 0.0390625 91.1081 0.0390625 87.7227V12.7227ZM43.7891 50.2227V37.7227H31.2891V50.2227H43.7891ZM62.5391 50.2227V43.9727C62.5391 42.2799 61.888 40.8477 60.5859 39.6758C59.4141 38.3737 57.9818 37.7227 56.2891 37.7227H50.0391V50.2227H62.5391ZM50.0391 75.2227V87.7227H56.2891C57.9818 87.7227 59.4141 87.1367 60.5859 85.9648C61.888 84.6628 62.5391 83.1654 62.5391 81.4727V75.2227H50.0391ZM31.2891 75.2227V87.7227H43.7891V75.2227H31.2891ZM12.5391 75.2227V81.4727C12.5391 83.1654 13.125 84.6628 14.2969 85.9648C15.599 87.1367 17.0964 87.7227 18.7891 87.7227H25.0391V75.2227H12.5391ZM12.5391 56.4727V68.9727H62.5391V56.4727H12.5391ZM12.5391 43.9727V50.2227H25.0391V37.7227H18.7891C17.0964 37.7227 15.599 38.3737 14.2969 39.6758C13.125 40.8477 12.5391 42.2799 12.5391 43.9727Z" fill="#BFA356"/>
</svg>
