<svg width="77" height="31" viewBox="0 0 77 31" fill="none" xmlns="http://www.w3.org/2000/svg">
<rect x="0.914062" y="0.148438" width="75.1443" height="30" rx="3" fill="#2196F3"/>
<path d="M39.0166 16.4639L40.9785 17.0859C40.6777 18.1797 40.1764 18.9932 39.4746 19.5264C38.7773 20.055 37.891 20.3193 36.8154 20.3193C35.4847 20.3193 34.391 19.8659 33.5342 18.959C32.6774 18.0475 32.249 16.8034 32.249 15.2266C32.249 13.5586 32.6797 12.2643 33.541 11.3438C34.4023 10.4186 35.5348 9.95605 36.9385 9.95605C38.1644 9.95605 39.1602 10.3184 39.9258 11.043C40.3815 11.4714 40.7233 12.0866 40.9512 12.8887L38.9482 13.3672C38.8298 12.8477 38.5814 12.4375 38.2031 12.1367C37.8294 11.8359 37.3737 11.6855 36.8359 11.6855C36.0931 11.6855 35.4893 11.9521 35.0244 12.4854C34.5641 13.0186 34.334 13.8822 34.334 15.0762C34.334 16.3431 34.5618 17.2454 35.0176 17.7832C35.4733 18.321 36.0658 18.5898 36.7949 18.5898C37.3327 18.5898 37.7952 18.4189 38.1826 18.0771C38.57 17.7354 38.848 17.1976 39.0166 16.4639ZM44.6221 10.127V13.8115C45.2419 13.0869 45.9824 12.7246 46.8438 12.7246C47.2858 12.7246 47.6846 12.8066 48.04 12.9707C48.3955 13.1348 48.6621 13.3444 48.8398 13.5996C49.0221 13.8548 49.1452 14.1374 49.209 14.4473C49.2773 14.7572 49.3115 15.238 49.3115 15.8896V20.1484H47.3906V16.3135C47.3906 15.5524 47.3542 15.0693 47.2812 14.8643C47.2083 14.6592 47.0785 14.4974 46.8916 14.3789C46.7093 14.2559 46.4792 14.1943 46.2012 14.1943C45.8822 14.1943 45.5973 14.2718 45.3467 14.4268C45.096 14.5817 44.9115 14.8164 44.793 15.1309C44.679 15.4408 44.6221 15.901 44.6221 16.5117V20.1484H42.7012V10.127H44.6221ZM52.7021 15.1035L50.959 14.7891C51.1549 14.0872 51.4922 13.5677 51.9707 13.2305C52.4492 12.8932 53.1602 12.7246 54.1035 12.7246C54.9603 12.7246 55.5983 12.8271 56.0176 13.0322C56.4368 13.2327 56.7308 13.4902 56.8994 13.8047C57.0726 14.1146 57.1592 14.6865 57.1592 15.5205L57.1387 17.7627C57.1387 18.4007 57.1683 18.8724 57.2275 19.1777C57.2913 19.4785 57.4076 19.8021 57.5762 20.1484H55.6758C55.6257 20.0208 55.5641 19.8317 55.4912 19.5811C55.4593 19.4671 55.4365 19.3919 55.4229 19.3555C55.0947 19.6745 54.7438 19.9137 54.3701 20.0732C53.9964 20.2327 53.5977 20.3125 53.1738 20.3125C52.4264 20.3125 51.8363 20.1097 51.4033 19.7041C50.9749 19.2985 50.7607 18.7858 50.7607 18.166C50.7607 17.7559 50.8587 17.3913 51.0547 17.0723C51.2507 16.7487 51.5241 16.5026 51.875 16.334C52.2305 16.1608 52.7409 16.0104 53.4062 15.8828C54.304 15.7142 54.9261 15.557 55.2725 15.4111V15.2197C55.2725 14.8506 55.1813 14.5885 54.999 14.4336C54.8167 14.2741 54.4727 14.1943 53.9668 14.1943C53.625 14.1943 53.3584 14.2627 53.167 14.3994C52.9756 14.5316 52.8206 14.7663 52.7021 15.1035ZM55.2725 16.6621C55.0264 16.7441 54.6367 16.8421 54.1035 16.9561C53.5703 17.07 53.2217 17.1816 53.0576 17.291C52.807 17.4688 52.6816 17.6943 52.6816 17.9678C52.6816 18.2367 52.7819 18.4691 52.9824 18.665C53.1829 18.861 53.4382 18.959 53.748 18.959C54.0944 18.959 54.4248 18.8451 54.7393 18.6172C54.9717 18.444 55.1243 18.2321 55.1973 17.9814C55.2474 17.8174 55.2725 17.5052 55.2725 17.0449V16.6621ZM62.3887 12.8887V14.4199H61.0762V17.3457C61.0762 17.9382 61.0876 18.2845 61.1104 18.3848C61.1377 18.4805 61.1947 18.5602 61.2812 18.624C61.3724 18.6878 61.4818 18.7197 61.6094 18.7197C61.7871 18.7197 62.0446 18.6582 62.3818 18.5352L62.5459 20.0254C62.0993 20.2168 61.5934 20.3125 61.0283 20.3125C60.682 20.3125 60.3698 20.2555 60.0918 20.1416C59.8138 20.0231 59.6087 19.8727 59.4766 19.6904C59.349 19.5036 59.2601 19.2529 59.21 18.9385C59.1689 18.7152 59.1484 18.264 59.1484 17.585V14.4199H58.2666V12.8887H59.1484V11.4463L61.0762 10.3252V12.8887H62.3887Z" fill="white"/>
</svg>
