<svg width="506" height="213" viewBox="0 0 506 213" fill="none" xmlns="http://www.w3.org/2000/svg">
<path d="M97.3501 191.141V164.984H26.7563C17.8501 164.984 11.147 162.969 6.64697 158.938C2.24072 154.906 0.0375977 149.422 0.0375977 142.484C0.0375977 140.703 0.365723 138.922 1.02197 137.141C1.67822 135.266 2.6626 133.344 3.9751 131.375C5.2876 129.312 6.64697 127.344 8.05322 125.469C9.45947 123.594 11.1938 121.297 13.2563 118.578L87.7876 18.875C92.6626 12.3125 96.647 7.57813 99.7407 4.67188C102.928 1.67188 106.725 0.171875 111.131 0.171875C125.381 0.171875 132.506 8.32812 132.506 24.6406V133.484H138.553C145.772 133.484 151.538 134.469 155.85 136.438C160.256 138.406 162.459 142.719 162.459 149.375C162.459 154.812 160.678 158.797 157.116 161.328C153.553 163.766 148.209 164.984 141.084 164.984H132.506V191.141C132.506 198.359 130.913 203.75 127.725 207.312C124.538 210.781 120.272 212.516 114.928 212.516C109.678 212.516 105.413 210.734 102.131 207.172C98.9438 203.516 97.3501 198.172 97.3501 191.141ZM36.8813 133.484H97.3501V51.7812L36.8813 133.484ZM325.303 107.891C325.303 123.266 324.366 136.484 322.491 147.547C320.616 158.609 317.147 168.641 312.084 177.641C305.709 188.703 297.459 197.234 287.334 203.234C277.209 209.234 265.959 212.234 253.584 212.234C239.334 212.234 226.538 208.203 215.194 200.141C203.944 192.078 195.459 180.922 189.741 166.672C186.834 158.891 184.678 150.312 183.272 140.938C181.959 131.469 181.303 121.25 181.303 110.281C181.303 96.125 182.053 83.375 183.553 72.0312C185.053 60.6875 187.397 50.9375 190.584 42.7812C196.116 29.2812 204.131 19.0156 214.631 11.9844C225.225 4.85937 237.834 1.29688 252.459 1.29688C262.116 1.29688 270.881 2.89062 278.756 6.07812C286.631 9.17188 293.522 13.7656 299.428 19.8594C305.428 25.8594 310.491 33.3125 314.616 42.2188C321.741 57.6875 325.303 79.5781 325.303 107.891ZM286.772 105.078C286.772 87.9219 285.741 73.9062 283.678 63.0312C281.616 52.0625 278.147 43.8125 273.272 38.2812C268.397 32.6562 261.647 29.8438 253.022 29.8438C240.647 29.8438 232.022 36.0781 227.147 48.5469C222.366 61.0156 219.975 80.2344 219.975 106.203C219.975 123.828 221.006 138.266 223.069 149.516C225.131 160.766 228.6 169.297 233.475 175.109C238.35 180.828 244.959 183.688 253.303 183.688C261.928 183.688 268.678 180.688 273.553 174.688C278.428 168.688 281.85 160.109 283.819 148.953C285.788 137.797 286.772 123.172 286.772 105.078ZM439.913 191.141V164.984H369.319C360.413 164.984 353.709 162.969 349.209 158.938C344.803 154.906 342.6 149.422 342.6 142.484C342.6 140.703 342.928 138.922 343.584 137.141C344.241 135.266 345.225 133.344 346.538 131.375C347.85 129.312 349.209 127.344 350.616 125.469C352.022 123.594 353.756 121.297 355.819 118.578L430.35 18.875C435.225 12.3125 439.209 7.57813 442.303 4.67188C445.491 1.67188 449.288 0.171875 453.694 0.171875C467.944 0.171875 475.069 8.32812 475.069 24.6406V133.484H481.116C488.334 133.484 494.1 134.469 498.413 136.438C502.819 138.406 505.022 142.719 505.022 149.375C505.022 154.812 503.241 158.797 499.678 161.328C496.116 163.766 490.772 164.984 483.647 164.984H475.069V191.141C475.069 198.359 473.475 203.75 470.288 207.312C467.1 210.781 462.834 212.516 457.491 212.516C452.241 212.516 447.975 210.734 444.694 207.172C441.506 203.516 439.913 198.172 439.913 191.141ZM379.444 133.484H439.913V51.7812L379.444 133.484Z" fill="#BFA356"/>
</svg>
