<svg width="523" height="592" viewBox="0 0 523 592" fill="none" xmlns="http://www.w3.org/2000/svg">
<path d="M241.506 439.142C347.139 439.142 432.771 353.51 432.771 247.878C432.771 142.245 347.139 56.6133 241.506 56.6133C135.874 56.6133 50.2417 142.245 50.2417 247.878C50.2417 353.51 135.874 439.142 241.506 439.142Z" fill="#F6F6F9"/>
<path d="M246.267 335.234V450.044C246.267 469.921 230.152 486.036 210.275 486.036H36.4679C21.6909 486.036 9.71071 498.016 9.71071 512.793V586.851C9.71071 589.401 7.64506 591.466 5.09486 591.466C2.54467 591.466 0.479004 589.401 0.479004 586.851V512.793C0.479004 492.916 16.5934 476.804 36.4679 476.804H210.278C225.055 476.804 237.032 464.827 237.032 450.05V335.234H246.267Z" fill="#2C447D"/>
<path d="M256.655 360.016V378.414C256.655 382.809 253.093 386.368 248.701 386.368H234.596C232.17 386.368 230.002 385.282 228.543 383.574V383.571C227.359 382.182 226.642 380.383 226.642 378.414V360.016H256.655Z" fill="#2C3872"/>
<path d="M272.332 317.121V353.872C272.332 359.548 267.73 364.149 262.052 364.149H221.243C215.568 364.149 210.966 359.548 210.966 353.872V317.121H272.332Z" fill="#4656A2"/>
<path d="M207.314 309.031H275.985C276.73 309.031 277.334 309.635 277.334 310.38V315.772C277.334 316.517 276.73 317.121 275.985 317.121H207.314C206.569 317.121 205.965 316.517 205.965 315.772V310.38C205.962 309.638 206.569 309.031 207.314 309.031Z" fill="#39488D"/>
<path d="M232.439 309.033H221.98V284.021C221.98 281.134 224.321 278.793 227.208 278.793C230.095 278.793 232.436 281.134 232.436 284.021V309.033H232.439Z" fill="#232851"/>
<path d="M261.316 309.033H250.857V284.021C250.857 281.134 253.197 278.793 256.085 278.793C258.972 278.793 261.313 281.134 261.313 284.021V309.033H261.316Z" fill="#232851"/>
<path d="M272.332 317.125V353.876C272.332 359.552 267.731 364.153 262.052 364.153H221.244C215.568 364.153 210.966 359.552 210.966 353.876C255.031 350.816 259.077 317.125 259.077 317.125H272.332Z" fill="#39488D"/>
<path d="M272.332 317.125H210.966V320.089H272.332V317.125Z" fill="#2C3872"/>
<path d="M272.333 332.656V353.874C272.333 359.549 267.731 364.151 262.052 364.151H233.405C262.333 364.151 272.333 332.656 272.333 332.656Z" fill="#2C3872"/>
<path d="M256.654 364.152H226.644V366.073H256.654V364.152Z" fill="#232851"/>
<path d="M232.439 305.371H221.98V309.032H232.439V305.371Z" fill="#15172D"/>
<path d="M261.316 305.371H250.857V309.032H261.316V305.371Z" fill="#15172D"/>
<path d="M256.654 364.151V378.41C256.654 382.804 253.093 386.363 248.701 386.363H234.595C232.17 386.363 230.002 385.278 228.543 383.57V383.567C250.528 386.264 253.886 364.148 253.886 364.148H256.654V364.151Z" fill="#232851"/>
<path d="M522.274 4.88536C522.274 7.43555 520.206 9.50405 517.656 9.50405H273.024C258.247 9.50405 246.267 21.4843 246.267 36.2613V157.591H237.032V36.2613C237.032 16.3839 253.144 0.269531 273.024 0.269531H517.656C520.206 0.269531 522.274 2.338 522.274 4.88536Z" fill="#2C447D"/>
<path d="M256.655 147.204V128.805C256.655 124.411 253.093 120.852 248.701 120.852H234.596C232.17 120.852 230.002 121.937 228.543 123.645V123.648C227.359 125.037 226.642 126.836 226.642 128.805V147.204H256.655Z" fill="#2C3872"/>
<path d="M272.332 190.099V153.348C272.332 147.672 267.731 143.07 262.052 143.07H221.244C215.568 143.07 210.966 147.672 210.966 153.348V190.099H272.332Z" fill="#4656A2"/>
<path d="M207.314 198.184H275.985C276.73 198.184 277.334 197.58 277.334 196.835V191.443C277.334 190.697 276.73 190.094 275.985 190.094H207.314C206.569 190.094 205.965 190.697 205.965 191.443V196.835C205.963 197.58 206.569 198.184 207.314 198.184Z" fill="#39488D"/>
<path d="M272.332 190.095V153.344C272.332 147.668 267.73 143.066 262.052 143.066H221.243C215.568 143.066 210.966 147.668 210.966 153.344C255.031 156.404 259.077 190.095 259.077 190.095H272.332Z" fill="#39488D"/>
<path d="M272.332 187.129H210.966V190.093H272.332V187.129Z" fill="#2C3872"/>
<path d="M272.333 174.561V153.344C272.333 147.668 267.731 143.066 262.052 143.066H233.405C262.333 143.064 272.333 174.561 272.333 174.561Z" fill="#2C3872"/>
<path d="M256.654 141.145H226.644V143.066H256.654V141.145Z" fill="#232851"/>
<path d="M256.655 143.064V128.805C256.655 124.411 253.093 120.852 248.701 120.852H234.596C232.17 120.852 230.002 121.937 228.543 123.645V123.648C250.529 120.951 253.886 143.067 253.886 143.067H256.655V143.064Z" fill="#232851"/>
<path d="M161.158 230.27H142.156C140.711 230.27 139.541 229.1 139.541 227.654C139.541 226.209 140.711 225.039 142.156 225.039H161.158C162.603 225.039 163.773 226.209 163.773 227.654C163.773 229.1 162.603 230.27 161.158 230.27Z" fill="#4656A2"/>
<path d="M185.274 206.158C183.829 206.158 182.659 204.988 182.659 203.543V184.541C182.659 183.096 183.829 181.926 185.274 181.926C186.719 181.926 187.889 183.096 187.889 184.541V203.543C187.889 204.988 186.719 206.158 185.274 206.158Z" fill="#4656A2"/>
<path d="M167.84 212.838C167.171 212.838 166.502 212.583 165.989 212.073L152.938 199.021C151.918 197.998 151.918 196.344 152.938 195.324C153.958 194.304 155.616 194.304 156.636 195.324L169.687 208.375C170.707 209.395 170.707 211.053 169.687 212.073C169.177 212.58 168.508 212.838 167.84 212.838Z" fill="#4656A2"/>
<path d="M322.138 289.121H341.14C342.585 289.121 343.755 290.291 343.755 291.736C343.755 293.182 342.585 294.352 341.14 294.352H322.138C320.693 294.352 319.522 293.182 319.522 291.736C319.522 290.291 320.693 289.121 322.138 289.121Z" fill="#4656A2"/>
<path d="M298.021 313.234C299.466 313.234 300.637 314.405 300.637 315.85V334.852C300.637 336.297 299.466 337.467 298.021 337.467C296.576 337.467 295.406 336.297 295.406 334.852V315.85C295.406 314.407 296.576 313.234 298.021 313.234Z" fill="#4656A2"/>
<path d="M315.459 306.551C316.128 306.551 316.797 306.806 317.309 307.316L330.364 320.367C331.384 321.387 331.384 323.045 330.364 324.065C329.341 325.088 327.686 325.088 326.666 324.065L313.614 311.014C312.594 309.994 312.594 308.336 313.614 307.316C314.119 306.806 314.788 306.551 315.459 306.551Z" fill="#4656A2"/>
</svg>
