<?xml version="1.0" encoding="utf-8"?>
<!-- Generator: Adobe Illustrator 21.0.0, SVG Export Plug-In . SVG Version: 6.00 Build 0)  -->
<svg version="1.1" id="Layer_1" xmlns="http://www.w3.org/2000/svg" xmlns:xlink="http://www.w3.org/1999/xlink" x="0px" y="0px"
	 viewBox="0 0 191.8 112" style="enable-background:new 0 0 191.8 112;" xml:space="preserve">
<style type="text/css">
	.st0{fill:#FFFFFF;}
	.st1{fill:#070403;}
	.st2{fill:#F5B828;}
</style>
<path class="st0" d="M179.8,112H12.1c-6.7,0-12-5.4-12-12V12c0-6.7,5.4-12,12-12h167.7c6.7,0,12,5.4,12,12V100
	C191.8,106.6,186.4,112,179.8,112z"/>
<g>
	<g>
		<path class="st1" d="M94.5,84.9c0-3.4,0-6.8,0-10.2c0-1.5,0.5-2.2,1.8-2.2c1.2,0,1.8,0.7,1.8,2.2c0,2.5,0.1,5.1,0,7.6
			c0,1.2,0.2,1.7,1.5,1.6c2.7-0.1,5.5-0.1,8.2,0c0.9,0,1.7,0.1,2.6,0.3c2.2,0.4,3.4,1.8,3.5,4c0.1,2.4,0.1,4.8,0,7.2
			c-0.1,2.5-1.4,4-3.9,4.3c-3.8,0.4-7.7,0.4-11.6,0c-2.6-0.3-3.9-1.9-3.9-4.6C94.5,91.7,94.5,88.3,94.5,84.9z M103.7,87.3
			C103.7,87.2,103.7,87.2,103.7,87.3c-1.5-0.1-2.9,0-4.4-0.1c-1-0.1-1.4,0.2-1.3,1.3c0.1,2.1,0.1,4.2,0,6.3c0,1.2,0.5,1.8,1.7,1.8
			c3.1,0,6.2,0,9.3,0c1,0,1.4-0.4,1.4-1.4c0-2,0-4.1,0-6.1c0-1.2-0.5-1.7-1.6-1.7C107.1,87.3,105.4,87.3,103.7,87.3z"/>
		<path class="st1" d="M44.8,93c0-1.5,0-3.1,0-4.6c0.1-2.6,1.2-4.1,3.7-4.4c2.9-0.3,5.8-0.6,8.6,0.4c0.3,0.1,0.6,0.1,0.9,0
			c2.9-1.1,5.8-0.8,8.8-0.5c2.6,0.2,3.9,1.8,3.9,4.4c0.1,3.2,0,6.5,0,9.7c0,1.2-0.7,1.9-1.8,1.9c-1.2,0-1.8-0.6-1.8-1.9
			c0-2.9,0-5.8,0-8.7c0-1.9-0.3-2.1-2.2-2.2c-1.3,0-2.5,0-3.8,0c-1.3,0-1.8,0.6-1.8,1.8c0,3,0,6,0,9c0,0.8-0.3,1.4-1,1.8
			c-0.7,0.3-1.4,0.2-2-0.3c-0.5-0.4-0.6-1-0.6-1.6c0-2.9,0-5.7,0-8.6c0-1.9-0.2-2.1-2.1-2.1c-1.2,0-2.5,0-3.7,0
			c-1.2,0-1.6,0.5-1.6,1.7c0,3,0,5.9,0,8.9c0,1.5-0.6,2.2-1.8,2.2c-1.3,0-1.8-0.6-1.8-2.3C44.8,96.1,44.8,94.5,44.8,93
			C44.8,93,44.8,93,44.8,93z"/>
		<path class="st1" d="M82.7,99.8c-1.9,0.1-3.8,0.2-5.7-0.1c-2.6-0.4-3.9-1.8-4-4.5c0-2.2,0-4.5,0-6.7c0-2.7,1.2-4.2,3.9-4.5
			c3.7-0.4,7.5-0.4,11.3,0c2.8,0.3,4,1.9,4,4.7c0,2.1,0,4.2,0,6.3c0,3-1.3,4.5-4.4,4.8C86.1,99.9,84.4,99.8,82.7,99.8z M82.6,96.4
			C82.6,96.4,82.6,96.4,82.6,96.4c1.5,0,3.1,0,4.6,0c0.9,0,1.3-0.4,1.3-1.3c0-2.2,0-4.4,0-6.5c0-0.8-0.3-1.3-1.2-1.3
			c-3.1-0.1-6.3-0.1-9.4,0c-1,0.1-1.3,0.6-1.3,1.5c0,2.1,0,4.2,0,6.3c0,0.9,0.4,1.4,1.3,1.4C79.5,96.4,81.1,96.4,82.6,96.4z"/>
		<path class="st1" d="M138.5,93.7c-2,0-4.1,0-6.1,0c-0.4,0-1.1-0.4-1.2,0.4c-0.1,0.8-0.1,1.6,0.8,2c0.8,0.3,1.6,0.4,2.4,0.4
			c1,0,1.9,0,2.9,0c0.9,0,1.4,0.6,1.5,1.5c0.1,0.9-0.2,1.8-1.2,1.8c-2.7,0.2-5.5,0.3-7.9-1.1c-1.2-0.7-1.9-1.8-2-3.2
			c-0.2-2.5-0.2-5,0-7.5c0.2-2.2,1.3-3.4,3.5-3.9c2-0.4,4-0.2,6-0.3c1.8,0,3.6-0.1,5.4,0c3.2,0.2,4.4,1.5,4.4,4.6c0,1.1,0,2.3,0,3.4
			c0,1.2-0.6,1.8-1.9,1.8c-1.1,0-2.2,0-3.3,0S139.5,93.7,138.5,93.7z M137.2,90.3c1.7,0,3.4,0,5.2,0c0.3,0,0.8,0.1,0.8-0.2
			c0.2-0.8,0.2-1.7,0-2.4c-0.2-0.6-0.9-0.4-1.4-0.4c-2.4,0-4.9,0-7.3,0c-0.8,0-1.5,0-2.3,0.1c-1.4,0.3-0.9,1.5-0.9,2.3
			c-0.1,1,0.7,0.6,1.2,0.6C133.9,90.3,135.5,90.3,137.2,90.3z"/>
		<path class="st1" d="M121.8,86c0-3.7,0-7.5,0-11.2c0-1.7,0.5-2.4,1.7-2.4c1.2,0,1.8,0.7,1.8,2.4c0,6.3,0,12.6,0,19
			c0,1.3,0,2.6,0,4c0,1.4-0.6,2.1-1.8,2.1c-1.2,0-1.7-0.7-1.7-2.1C121.8,93.9,121.8,89.9,121.8,86z"/>
		<path class="st1" d="M119.6,91.6c0,2,0,4.1,0,6.1c0,1.4-0.6,2.1-1.7,2.2c-1.1,0-1.7-0.7-1.7-2.2c0-4.1,0-8.2,0-12.2
			c0-1.5,0.6-2.1,1.7-2.1c1.2,0,1.7,0.7,1.7,2.1C119.6,87.5,119.6,89.6,119.6,91.6z"/>
		<path class="st1" d="M117.9,82.6c-1.2,0-1.7-0.6-1.7-1.7c0-1.1,0.7-1.6,1.7-1.6c1.1,0,1.7,0.7,1.6,1.7
			C119.5,82.1,118.9,82.7,117.9,82.6z"/>
	</g>
	<g>
		<path class="st2" d="M92.5,67.6L68.8,43.9c-1.8-1.8-1.8-4.8,0-6.6l23.7-23.7c1.8-1.8,4.8-1.8,6.6,0l23.7,23.7
			c1.8,1.8,1.8,4.8,0,6.6L99.1,67.6C97.3,69.4,94.3,69.4,92.5,67.6z"/>
		<path class="st1" d="M116.5,40.5c0,1.4-0.6,2.5-1.6,3.5c-4.9,4.9-9.8,9.8-14.7,14.7c-0.7,0.7-1.3,1.4-2,2
			c-1.8,1.5-4.2,1.4-5.8-0.2C87.1,55.2,81.9,50,76.7,44.7c-1.8-1.8-1.6-4.5,0.3-6.5c2.2-2.3,4.5-4.5,6.7-6.8
			c3.4-3.4,6.9-6.9,10.3-10.3c0.8-0.8,1.8-1.4,3-1.2c1.2,0.2,2.1,0.9,2.5,2.1c0.4,1.3,0.1,2.4-0.9,3.4C95,29,91.4,32.7,87.7,36.3
			c-1.4,1.3-2.7,2.7-4,4.1c-1.1,1.1-1.1,1.5-0.1,2.6c3.5,3.5,7.1,7,10.6,10.6c0.9,0.9,1.5,0.8,2.3,0c4.1-4.1,8.1-8.2,12.2-12.3
			c0.6-0.6,0.7-1.1,0-1.7c-1-0.9-1.9-1.8-2.8-2.8c-0.4-0.5-0.7-0.5-1.2,0c-0.5,0.5-1,1.1-1.6,1.5c-1.4,1.1-3.2,0.9-4.3-0.3
			c-1-1.2-1-3,0.1-4.2c1.1-1.1,2.1-2.2,3.3-3.3c1.8-1.6,4.3-1.6,6.1,0c2.4,2.3,4.7,4.6,7,6.9C116.2,38.2,116.6,39.3,116.5,40.5z"/>
	</g>
</g>
</svg>
