<?xml version="1.0" encoding="utf-8"?>
<!-- Generator: Adobe Illustrator 23.0.3, SVG Export Plug-In . SVG Version: 6.00 Build 0)  -->
<svg version="1.1" id="Layer_1" xmlns="http://www.w3.org/2000/svg" xmlns:xlink="http://www.w3.org/1999/xlink" x="0px" y="0px"
	 viewBox="0 0 191.8 112" style="enable-background:new 0 0 191.8 112;" xml:space="preserve">
<style type="text/css">
	.st0{fill:#FFFFFF;}
	.st1{fill:#D61921;}
	.st2{fill:#C6C7C9;}
	.st3{fill:#020202;}
	.st4{fill:#060606;}
	.st5{fill:#FEFEFE;}
</style>
<path class="st0" d="M179.8,112.1H12.1c-6.7,0-12-5.4-12-12v-88c0-6.7,5.4-12,12-12h167.7c6.7,0,12,5.4,12,12V100
	C191.9,106.7,186.5,112.1,179.8,112.1z"/>
<g>
	<path class="st1" d="M147.1,34.6c2.1-0.7,4.1-0.4,6.1,0.4c3.1,1.3,5.4,3.6,7.2,6.4c1.4,2.2,2.4,4.6,2.6,7.2c0.1,1.5-0.1,3-0.9,4.4
		c-3.6,6.2-7.2,12.4-10.8,18.6c0,0.1-0.1,0.2-0.2,0.2c0-0.4,0.2-0.8,0.3-1.1c0.6-1.9,0.8-3.8,0.2-5.7c-0.6-1.9-1.8-3.2-3.3-4.4
		c-1.7-1.4-3.7-2.4-5.6-3.4c-2.1-1.2-4.3-2.3-5.9-4.3c0.7-3.3,1.7-6.5,3.1-9.5c1.2-2.5,2.6-4.9,4.6-6.9c0.7-0.7,1.5-1.2,2.4-1.8l0,0
		C147,34.7,147.1,34.7,147.1,34.6z"/>
	<path class="st2" d="M146.9,34.7c-0.8,0.6-1.6,1.1-2.4,1.8c-2,2-3.4,4.4-4.6,6.9c-1.4,3-2.4,6.2-3.1,9.5c-0.6,2.4-0.9,4.9-1,7.4
		c-0.1,1.5,0,2.9,0,4.4c0.1,1.2,0.2,2.4,0.4,3.6c0.4,2.4,1.1,4.6,2.3,6.8c-0.2,0.1-0.2-0.1-0.3-0.2c-2.1-3.4-4.2-6.9-6.4-10.3
		c-1.6-2.7-3.3-5.3-5-8c-1.4-2.2-2.6-4.5-3.1-7c-0.4-1.9-0.4-3.8,0.5-5.6c0.6-1.2,1.5-1.9,2.7-2.3c3.7-1.3,7.4-2.5,11.2-3.8
		c2.8-1,5.7-2,8.5-2.9C146.7,34.7,146.8,34.7,146.9,34.7z"/>
	<path class="st3" d="M138.5,75c-1.2-2.1-1.9-4.4-2.3-6.8c-0.2-1.2-0.3-2.4-0.4-3.6c0.2,0,0.4,0.1,0.6,0.2
		c5.1,2.4,10.2,2.6,15.3,0.1c0.6,1.9,0.4,3.8-0.2,5.7c-0.1,0.4-0.3,0.7-0.3,1.1l0,0c-0.1,0-0.1,0.1-0.1,0.2c-1,1.9-2,3.7-3.8,5
		c-2.6,1.7-5.9,1.4-8-0.9C139,75.8,138.8,75.3,138.5,75z"/>
	<path class="st4" d="M106.8,52.2c1-1.3,2.2-2.1,3.9-2.4c2-0.3,3.4,1,3.4,3c0,2.4-0.1,4.8,0.1,7.2c0,0.4,0.1,0.8,0.1,1.2
		c0,0.3,0,0.4-0.3,0.4c-0.5,0-1,0-1.6,0c-0.4,0-0.4-0.1-0.4-0.4c0-1.8,0-3.7,0-5.4c0-0.9,0-1.8-0.1-2.6c-0.3-0.9-0.8-1.3-1.7-1.4
		c-0.7,0-1.3,0.1-2,0.4c-0.9,0.4-1.4,0.9-1.4,2.1c0.1,2.4-0.1,4.7,0.3,7.1c0,0.3,0,0.3-0.3,0.3c-0.7,0-1.3,0-2,0
		c-0.4,0-0.3-0.3-0.3-0.4c0-2.4,0-4.7,0-7.1c0-1.8-0.8-2.6-2.6-2.4c-0.3,0-0.7,0.1-0.9,0.3c-1.3,0.5-1.7,1-1.7,2.5
		c0.1,2.2-0.1,4.4,0.1,6.7c0,0.3,0,0.4-0.3,0.4l0,0c-0.7,0-1.4,0.3-1.8-0.1c-0.4-0.3-0.1-1.2-0.1-1.8c0-2,0-3.9,0.1-6
		c0-0.7,0-1.2-0.3-1.8c-0.1-0.4-0.3-0.7-0.5-0.8c-0.7-0.5-0.7-0.7,0.1-1c0.4-0.1,0.8-0.3,1.2-0.3c1.2,0,1.4,0.3,1.6,1.4
		c0,0.1-0.1,0.5,0.1,0.5s0.3-0.3,0.4-0.3c1-1,2.2-1.7,3.7-1.7C105.1,49.7,106.2,50.5,106.8,52.2z M99.6,52
		C99.6,51.9,99.6,51.9,99.6,52c-0.1,0-0.1,0-0.1,0S99.5,52,99.6,52L99.6,52z"/>
	<path class="st4" d="M39.3,54c0-2.2,0-4.4,0-6.7c0-1.6,0-1.6-1.6-1.6c-0.5,0-1.2,0-1.7,0.1c-0.7,0.1-1.2,0.4-1.4,1
		c0,0.1-0.1,0.4-0.3,0.3c-0.1,0-0.1-0.3-0.1-0.4c0-0.4,0-0.8,0-1.2c0.1-1.2,0.4-1.3,1.4-1.3c3.4,0.3,6.9,0.3,10.3,0
		c0.4,0,0.7,0.1,0.8,0.5c0.3,0.7,0.3,1.4,0.1,2.1c0,0.1,0,0.3-0.1,0.3c-0.1,0-0.1,0-0.3-0.1c-0.4-1-1.3-1.2-2.4-1.2
		c-0.5,0-1.2,0-1.7,0s-0.7,0.1-0.7,0.7c0,1.3-0.1,2.5-0.1,3.8c0,3.7-0.1,7.3,0.1,10.9c0,0.4-0.1,0.4-0.4,0.4c-0.5,0-1.2,0-1.7,0
		c-0.4,0-0.5-0.1-0.5-0.5C39.3,58.7,39.2,56.4,39.3,54L39.3,54z"/>
	<path class="st4" d="M95.2,55.4c0,4.2-3.8,7.1-7.7,6c-2.1-0.5-3-2.1-3.4-4.1c-0.7-2.9,0.5-5.6,3-6.8C90.5,48.8,95.2,50.3,95.2,55.4
		z M92.6,56.2c0-1.7-0.4-3.4-1.7-4.6c-1.3-1.3-3-0.9-3.8,0.7c-0.5,1-0.7,2.1-0.5,3.1c0.1,1.7,0.4,3.3,1.6,4.4c1,1.2,2.5,1,3.4-0.3
		C92.3,58.6,92.4,57.4,92.6,56.2z"/>
	<path class="st4" d="M71.5,58.2c0,0.9-0.3,1.6-0.8,2.1c-1.7,1.6-5,2-6.9,0.8c-1.6-0.9-2.2-2.5-2.2-4.2c-0.1-2.2,0.4-4.2,2-5.8
		c1.6-1.4,4.1-1.7,5.8-0.5c1.2,0.8,1.7,1.8,1.8,3.3V54c0.1,1.3,0,1.4-1.3,1.4c-1.8,0-3.7,0-5.4-0.1c-0.5,0-0.7,0.1-0.7,0.7
		s0,1,0.3,1.6c0.7,2.1,2.6,3,5,2.5C69.8,59.5,70.7,59.1,71.5,58.2z M66.4,54.5C66.4,54.4,66.4,54.4,66.4,54.5
		c0.7-0.1,1.4-0.1,2.1-0.1c0.3,0,0.4-0.1,0.4-0.4c0-0.7-0.3-1.3-0.5-2c-0.8-1.4-2.7-1.4-3.7,0c-0.4,0.7-0.7,1.4-0.8,2.1
		c-0.1,0.4,0,0.4,0.4,0.4C65,54.4,65.6,54.5,66.4,54.5z"/>
	<path class="st4" d="M55,58.2c0,0.9-0.3,1.6-0.8,2.1c-1.8,1.8-5.5,2-7.6,0.4c-1-0.8-1.4-2-1.6-3.1c-0.3-2.2,0.1-4.2,1.6-5.9
		s4.2-2.2,6.1-1c1.3,0.8,1.8,2.1,1.8,3.5c0,1,0,1.2-1.2,1.2c-1.7,0-3.4,0-5.1-0.1c-1.2,0-1.2-0.1-1.2,1c0.1,2.7,2.4,4.3,5.1,3.5
		C53.5,59.6,54.4,59.1,55,58.2z M50.1,54.5C50.1,54.4,50.1,54.4,50.1,54.5c0.7-0.1,1.3-0.1,2.1-0.1c0.4,0,0.5-0.1,0.4-0.4
		c0-0.7-0.3-1.4-0.7-2c-0.9-1.3-2.7-1.3-3.5,0c-0.4,0.7-0.7,1.4-0.8,2.1c-0.1,0.4,0,0.5,0.4,0.4C48.6,54.4,49.4,54.5,50.1,54.5z"/>
	<path class="st4" d="M82.6,57.9c0.3,0.8,0,1.4-0.4,2c-1.4,1.6-3.3,2.1-5.4,1.6c-2-0.4-3.1-1.7-3.5-3.8c-0.4-2.4-0.1-4.4,1.6-6.3
		c1.7-2.1,4.8-2,6.5-1.2c0.4,0.1,0.7,0.4,0.8,0.7c0.3,0.4,0.4,0.9,0,1.4c-0.3,0.5-0.8,0.5-1.3,0.4c-0.3,0-0.4-0.1-0.5-0.4
		c-0.5-1.3-2.2-1.8-3.4-0.9c-1.2,1-1.6,2.2-1.7,3.7c-0.1,1.3,0.1,2.5,0.9,3.5c1.3,1.7,3.5,1.8,5.4,0.4C82,58.7,82.2,58.3,82.6,57.9z
		"/>
	<path class="st4" d="M59.5,53.5c-0.1,2.6-0.1,5.1,0.1,7.7c0,0.4-0.1,0.4-0.4,0.4c-0.7,0-1.3,0-2,0c-0.3,0-0.3-0.1-0.3-0.4
		c0-3.1,0-6.3,0.1-9.3c0-1.4,0-3,0-4.4c0-0.8-0.3-1.6-0.9-2.2c-0.3-0.3-0.1-0.3,0-0.4c0.7-0.4,1.4-0.5,2.1-0.5
		c0.7,0.1,1,0.4,1.2,1.2c0.3,1.2,0,2.4,0,3.5C59.5,50.5,59.5,52,59.5,53.5z"/>
	<g>
		<path class="st4" d="M32.8,55.2c0,1.8-0.2,3.7,0,5.6c0.1,0.8,0.1,0.8-0.7,0.8c-0.6,0-1.2,0-1.8,0c-0.3,0-0.4-0.1-0.4-0.4
			c0.1-1.9,0.1-3.9,0.2-5.8c0-1.2,0.2-2.4,0-3.7c-0.1-0.3-0.2-0.8-0.3-1c-0.1-0.2-0.3-0.3-0.4-0.3c-0.3-0.1-0.3-0.3-0.3-0.5
			c0-0.3,0.1-0.5,0.4-0.7c0.5-0.3,1.1-0.4,1.7-0.4c1.2-0.1,1.8,0.4,1.8,1.7c0,1.3-0.1,2.6-0.1,3.9C32.8,54.5,32.8,54.8,32.8,55.2z"
			/>
		<path class="st4" d="M32.7,45.4c0,0.9-0.8,1.7-1.6,1.7c-0.9,0-1.7-0.8-1.7-1.6c0-0.9,0.7-1.6,1.7-1.6C32,43.9,32.7,44.7,32.7,45.4
			z"/>
	</g>
	<path class="st1" d="M151,72.1c0-0.1,0-0.2,0.1-0.2C151.2,71.9,151.2,72,151,72.1z"/>
	<path class="st2" d="M147.1,34.6c0,0.1-0.1,0.1-0.2,0.1C147,34.6,147.1,34.6,147.1,34.6z"/>
	<path class="st5" d="M99.6,52L99.6,52c-0.1,0.1-0.1,0-0.1,0S99.6,51.9,99.6,52C99.6,51.9,99.6,51.9,99.6,52z"/>
</g>
</svg>
