<?xml version="1.0" encoding="utf-8"?>
<!-- Generator: Adobe Illustrator 21.0.0, SVG Export Plug-In . SVG Version: 6.00 Build 0)  -->
<svg version="1.1" id="Layer_1" xmlns="http://www.w3.org/2000/svg" xmlns:xlink="http://www.w3.org/1999/xlink" x="0px" y="0px"
	 viewBox="0 0 191.8 112" style="enable-background:new 0 0 191.8 112;" xml:space="preserve">
<style type="text/css">
	.st0{fill:#FFFFFF;}
	.st1{fill:#134A9F;}
	.st2{fill:#E12728;}
</style>
<path class="st0" d="M179.7,112H12c-6.7,0-12-5.4-12-12V12C0,5.4,5.4,0,12,0h167.7c6.7,0,12,5.4,12,12v87.9
	C191.8,106.6,186.4,112,179.7,112z"/>
<g>
	<path class="st1" d="M13.8,51.3h3v1.6c0.5-0.6,1.2-1,2-1.3c0.8-0.3,2.2-0.4,4.2-0.4c2.6,0,4.5,0.2,5.7,0.6c1.2,0.4,2,1,2.5,1.8
		c0.4-0.8,1.1-1.4,2.2-1.8c1.1-0.4,2.8-0.6,5.1-0.6c2.2,0,3.8,0.1,4.9,0.4c1.1,0.3,2,0.8,2.7,1.6c0.5,0.6,0.9,1.3,1,2
		c0.2,0.7,0.2,2,0.2,3.9v8.4h-3v-9c0-1.9-0.3-3.1-0.8-3.7c-0.7-0.7-2.4-1.1-5.1-1.1c-1.6,0-2.7,0.1-3.5,0.3c-0.8,0.2-1.4,0.5-1.8,1
		c-0.4,0.5-0.7,1.1-0.8,2c-0.2,0.8-0.2,2.2-0.2,4.1v6.4h-3v-9c0-1.1-0.1-1.9-0.2-2.4c-0.1-0.5-0.3-0.9-0.6-1.2
		c-0.8-0.7-2.5-1.1-5.1-1.1c-1.6,0-2.8,0.1-3.6,0.3c-0.8,0.2-1.4,0.6-1.9,1c-0.4,0.4-0.6,1-0.8,1.8c-0.1,0.8-0.2,2.2-0.2,4.2v6.4h-3
		V51.3z"/>
	<path class="st1" d="M59.6,51.1c2.5,0,4.3,0.1,5.5,0.2c1.2,0.2,2.2,0.4,2.8,0.8c1.1,0.6,1.8,1.5,2.3,2.6c0.5,1.1,0.7,2.6,0.7,4.5
		c0,2.1-0.3,3.7-0.8,4.8c-0.4,0.9-0.9,1.5-1.6,2c-0.7,0.5-1.6,0.8-2.7,1.1c-1,0.2-2.8,0.3-5.1,0.3c-2.2,0-4-0.1-5.1-0.2
		c-1.2-0.2-2.1-0.4-2.9-0.8c-1.1-0.6-1.9-1.4-2.3-2.6c-0.5-1.1-0.7-2.7-0.7-4.7c0-2.2,0.3-3.9,1-5.1c0.7-1.2,1.6-2,2.9-2.4
		S56.8,51.1,59.6,51.1z M60,53.6c-1.6,0-2.9,0.1-3.7,0.2c-0.8,0.1-1.4,0.3-1.9,0.6c-0.5,0.4-0.9,0.9-1.2,1.7
		C53,57,52.9,58,52.9,59.4c0,1.6,0.2,2.8,0.5,3.5c0.3,0.8,0.9,1.3,1.7,1.6c0.9,0.4,2.7,0.5,5.4,0.5c1.8,0,3.1-0.1,3.9-0.2
		c0.8-0.1,1.5-0.4,1.9-0.7c0.5-0.4,0.9-0.9,1.1-1.7c0.2-0.8,0.3-1.8,0.3-3.2c0-1.6-0.2-2.8-0.5-3.6c-0.4-0.8-1.1-1.4-2-1.6
		C64.3,53.8,62.6,53.6,60,53.6z"/>
	<path class="st1" d="M73.4,44.4h3v8.8h-0.2c0.5-0.8,1.3-1.4,2.3-1.7c1-0.3,2.6-0.4,4.9-0.4c2.6,0,4.5,0.1,5.6,0.3
		c1.1,0.2,2.1,0.5,2.8,1c0.9,0.7,1.6,1.5,1.9,2.5c0.4,1.1,0.6,2.7,0.6,4.7c0,2.3-0.3,4-1,5.1c-0.9,1.5-2.5,2.4-4.9,2.8
		c-1,0.1-2.5,0.2-4.6,0.2c-2.5,0-4.3-0.1-5.3-0.4c-1-0.3-1.8-0.9-2.3-1.8h0.3v2h-3V44.4z M83.4,53.6c-1.6,0-2.8,0.1-3.7,0.2
		c-0.8,0.1-1.4,0.4-1.9,0.7c-0.5,0.4-0.9,0.9-1.2,1.7c-0.2,0.7-0.3,1.8-0.3,3.2c0,1.9,0.2,3.1,0.6,3.8c0.4,0.8,1.1,1.3,2.1,1.5
		c1,0.2,2.8,0.4,5.6,0.4c1.4,0,2.5-0.1,3.3-0.2c0.7-0.1,1.4-0.4,1.9-0.7c0.5-0.3,0.8-0.9,1-1.6c0.2-0.7,0.3-1.8,0.3-3.1
		c0-1.8-0.2-3.1-0.6-3.9c-0.4-0.8-1.1-1.3-2-1.5C87.7,53.8,85.9,53.6,83.4,53.6z"/>
	<rect x="96.8" y="45.6" class="st2" width="3" height="3.3"/>
	<rect x="96.8" y="51.3" class="st1" width="3" height="16.1"/>
	<path class="st2" d="M100.6,51.3h2.4c0-1.5,0.1-2.5,0.3-3.2c0.2-0.7,0.5-1.3,0.9-1.8c0.6-0.7,1.3-1.1,2.3-1.4
		c0.9-0.3,2.4-0.4,4.4-0.5l3.4-0.1l-3.5,2.6c-1.3,0-2.2,0.1-2.8,0.2c-0.6,0.1-1,0.3-1.3,0.7c-0.3,0.3-0.4,0.6-0.5,1.1
		s-0.1,1.2-0.2,2.4h7.9l-2.9,2.5h-5v13.6h-3V53.8h-2.4V51.3z"/>
	<path class="st2" d="M121.2,51.1c2.5,0,4.3,0.1,5.5,0.2c1.2,0.2,2.2,0.4,2.8,0.8c1.1,0.6,1.8,1.5,2.3,2.6c0.5,1.1,0.7,2.6,0.7,4.5
		c0,2.1-0.3,3.7-0.8,4.8c-0.4,0.9-0.9,1.5-1.6,2c-0.7,0.5-1.6,0.8-2.7,1.1c-1,0.2-2.8,0.3-5.1,0.3c-2.2,0-4-0.1-5.1-0.2
		c-1.2-0.2-2.1-0.4-2.9-0.8c-1.1-0.6-1.9-1.4-2.3-2.6c-0.5-1.1-0.7-2.7-0.7-4.7c0-2.2,0.3-3.9,1-5.1c0.7-1.2,1.6-2,2.9-2.4
		S118.4,51.1,121.2,51.1z M121.6,53.6c-1.6,0-2.9,0.1-3.7,0.2c-0.8,0.1-1.4,0.3-1.9,0.6c-0.5,0.4-0.9,0.9-1.2,1.7
		c-0.3,0.8-0.4,1.9-0.4,3.3c0,1.6,0.2,2.8,0.5,3.5c0.3,0.8,0.9,1.3,1.7,1.6c0.9,0.4,2.7,0.5,5.4,0.5c1.8,0,3.1-0.1,3.9-0.2
		c0.8-0.1,1.5-0.4,1.9-0.7c0.5-0.4,0.9-0.9,1.1-1.7c0.2-0.8,0.3-1.8,0.3-3.2c0-1.6-0.2-2.8-0.5-3.6c-0.4-0.8-1.1-1.4-2-1.6
		C125.9,53.8,124.1,53.6,121.6,53.6z"/>
	<path class="st2" d="M134.9,51.3h3v2.4h-0.2c0.5-1,1.3-1.6,2.5-2c1.1-0.4,3-0.6,5.6-0.6c2.3,0,4,0.1,5.1,0.4c1.1,0.3,2,0.7,2.7,1.4
		c0.5,0.5,0.8,1.2,1,2c0.2,0.8,0.3,1.9,0.3,3.4v9.1h-3v-8c0-1.4-0.1-2.4-0.2-3c-0.1-0.6-0.3-1.1-0.7-1.5c-0.4-0.5-1-0.8-1.8-1
		c-0.8-0.2-2.1-0.3-3.8-0.3c-1.9,0-3.4,0.1-4.4,0.4c-1,0.3-1.8,0.7-2.3,1.3c-0.4,0.5-0.6,1-0.7,1.5c-0.1,0.6-0.2,1.6-0.2,3.1v7.5h-3
		V51.3z"/>
	<path class="st2" d="M174.7,62.2h3.1c0,2-0.7,3.4-2.1,4.2c-1.3,0.8-3.6,1.2-6.9,1.2c-2.6,0-4.7-0.1-6.1-0.3
		c-1.4-0.2-2.5-0.6-3.2-1.1c-1.6-1.2-2.5-3.4-2.5-6.8c0-2.4,0.3-4.1,1-5.3c0.7-1.2,1.6-1.9,2.9-2.4c1.3-0.4,3.3-0.6,6.2-0.6
		c2.7,0,4.7,0.1,6,0.4c1.3,0.3,2.3,0.9,3,1.7c0.6,0.7,1,1.5,1.3,2.4c0.2,0.9,0.4,2.4,0.4,4.3h-17.5c0.1,1.8,0.4,3.1,1.1,3.8
		c0.4,0.5,1.2,0.8,2.2,0.9c1,0.2,2.7,0.3,5,0.3c1.8,0,3-0.1,3.8-0.2c0.8-0.2,1.4-0.4,1.7-0.8C174.5,63.7,174.7,63.1,174.7,62.2z
		 M174.6,57.6c0-1.4-0.4-2.4-1.2-3c-0.5-0.4-1.2-0.6-2.1-0.8c-0.9-0.2-2.3-0.2-4.1-0.2c-1.6,0-2.8,0.1-3.6,0.2
		c-0.8,0.1-1.4,0.4-1.9,0.7c-0.7,0.6-1.2,1.6-1.3,3H174.6z"/>
</g>
</svg>
