<?xml version="1.0" encoding="utf-8"?>
<!-- Generator: Adobe Illustrator 21.0.0, SVG Export Plug-In . SVG Version: 6.00 Build 0)  -->
<svg version="1.1" id="Layer_1" xmlns="http://www.w3.org/2000/svg" xmlns:xlink="http://www.w3.org/1999/xlink" x="0px" y="0px"
	 viewBox="0 0 191.8 112" style="enable-background:new 0 0 191.8 112;" xml:space="preserve">
<style type="text/css">
	.st0{fill:#FFFFFF;}
	.st1{fill:#FF0000;}
	.st2{fill:none;}
</style>
<g>
	<path class="st0" d="M179.8,112H12.1c-6.7,0-12-5.4-12-12V12c0-6.7,5.4-12,12-12h167.7c6.7,0,12,5.4,12,12V100
		C191.8,106.6,186.4,112,179.8,112z"/>
	<g>
		<g>
			<polygon class="st1" points="147.7,31.3 147.7,38.6 159.2,32.8 159.2,25.8 			"/>
			<polygon class="st1" points="159.3,33.4 159.3,39.9 169.9,33.2 169.9,26.1 			"/>
			<path class="st1" d="M151.6,47.5c0,0,14.9-4.1,21.8-11.5v8.5c0,0-4.1,4.1-6.6,4.4s-20.1,0.4-20.1,0.4L151.6,47.5z"/>
		</g>
		<rect x="136.3" y="55.5" width="6" height="28.8"/>
		<circle cx="139.3" cy="47.1" r="3.5"/>
		<path class="st1" d="M18.4,54.9v29.9h5.8V55.1C24.2,55.1,18.4,54.6,18.4,54.9z"/>
		<path class="st1" d="M62.2,55.1v6.4H34.4c0,0-10,1.1-11.5,12.4V61.2c0,0,2.9-6.1,13.9-6.1C62.4,55.1,62.4,55.2,62.2,55.1z"/>
		<rect x="37.3" y="67.3" class="st1" width="17.2" height="5.6"/>
		<rect x="37.3" y="79.1" class="st1" width="25.7" height="5.6"/>
		<path class="st2" d="M115.5,60.4c-5.6,0-10.1,4.6-10.1,10.1s4.6,10.1,10.1,10.1s10.1-4.6,10.1-10.1S121.1,60.4,115.5,60.4z"/>
		<path d="M130.9,67.8V44.1h-5.9v14c-2.6-2-5.9-3.3-9.5-3.3c-8.6,0-15.6,7-15.6,15.6s7,15.6,15.6,15.6c7.7,0,14.1-5.6,15.4-12.9
			L130.9,67.8C130.9,67.8,130.9,67.8,130.9,67.8z M115.5,80.7c-5.6,0-10.1-4.6-10.1-10.1s4.6-10.1,10.1-10.1s10.1,4.6,10.1,10.1
			S121.1,80.7,115.5,80.7z"/>
		<path class="st1" d="M96.6,67.8V44.1h-5.9v14c-2.6-2-5.9-3.3-9.5-3.3c-8.6,0-15.6,7-15.6,15.6s7,15.6,15.6,15.6
			c7.7,0,14.1-5.6,15.4-12.9L96.6,67.8C96.6,67.8,96.6,67.8,96.6,67.8z M81.2,80.7c-5.6,0-10.1-4.6-10.1-10.1s4.6-10.1,10.1-10.1
			S91.3,65,91.3,70.6S86.8,80.7,81.2,80.7z"/>
	</g>
</g>
</svg>
