<?xml version="1.0" encoding="utf-8"?>
<!-- Generator: Adobe Illustrator 21.0.0, SVG Export Plug-In . SVG Version: 6.00 Build 0)  -->
<svg version="1.1" id="Layer_1" xmlns="http://www.w3.org/2000/svg" xmlns:xlink="http://www.w3.org/1999/xlink" x="0px" y="0px"
	 viewBox="0 0 191.8 112" style="enable-background:new 0 0 191.8 112;" xml:space="preserve">
<style type="text/css">
	.st0{fill:#FFFFFF;}
	.st1{fill:#EA8932;}
	.st2{fill:#8A9298;}
</style>
<g>
	<path class="st0" d="M179.7,112H12c-6.7,0-12-5.4-12-12V12C0,5.4,5.4,0,12,0h167.7c6.7,0,12,5.4,12,12V100
		C191.8,106.6,186.4,112,179.7,112z"/>
	<g>
		<g>
			<path class="st1" d="M91.8,15.7c0.7,0.2,1.5,0.3,2.2,0.5c3.9,1.3,6.7,5,6.9,9.2c0.1,2.5-0.5,4.9-1.8,7
				c-5.9,10-11.9,20.1-17.8,30.1c-1.8,3.1-3.6,6.2-5.5,9.3c-2.3,3.7-5.7,5.7-10.1,5.6c-2.8,0-5.2-1.1-7.3-3.1c0-0.1,0-0.1-0.1-0.2
				l0,0c0,0-0.1-0.1-0.1-0.1l0,0c0-0.1,0-0.1-0.1-0.1l0,0c0-0.1,0-0.1-0.1-0.1l0,0c0-0.2-0.1-0.3-0.2-0.4c-1.5-2-2.2-4.2-2.2-6.7
				c0-2.1,0.6-4.1,1.7-5.9c2.1-3.5,4.1-7,6.2-10.5c0.9-1.5,1.7-3,2.6-4.5c0.1-0.2,0.2-0.3,0.4-0.5c4.7-8,9.4-15.9,14.1-23.9
				c1.7-2.8,4.1-4.6,7.2-5.5c0.5-0.1,1.1-0.3,1.6-0.4C90.1,15.7,90.9,15.7,91.8,15.7z"/>
			<path class="st1" d="M121.3,15.7c0.9,0.2,1.9,0.3,2.7,0.7c3.6,1.5,5.7,4.3,6.3,8.2c0.4,2.8-0.2,5.4-1.6,7.8
				c-7.7,13.1-15.4,26.1-23.1,39.2c-1.9,3.2-4.7,5.1-8.4,5.8c-5.5,1-10.9-2.8-11.8-8.4c-0.5-2.8,0-5.4,1.4-7.9
				c5.5-9.3,11-18.7,16.5-28c2.2-3.7,4.4-7.5,6.6-11.2c2-3.4,4.9-5.5,8.8-6.1c0.1,0,0.1-0.1,0.2-0.1
				C119.7,15.7,120.5,15.7,121.3,15.7z"/>
			<path class="st1" d="M151.4,15.7c0.8,0.2,1.5,0.3,2.3,0.5c3.9,1.4,6.2,4.2,6.8,8.3c0.4,2.7-0.1,5.4-1.6,7.9
				C152,44,145.1,55.8,138.2,67.5c-1.1,1.8-2,3.7-3.3,5.3c-2.4,3-5.5,4.6-9.3,4.7c-5.2,0-9.6-4-10.1-9.1c-0.3-2.7,0.2-5.1,1.6-7.4
				c7.7-13.1,15.4-26.1,23.1-39.2c2-3.4,4.9-5.4,8.8-5.9c0.1,0,0.1-0.1,0.2-0.1C149.9,15.7,150.6,15.7,151.4,15.7z"/>
			<path class="st2" d="M66,46c-0.9,1.5-1.7,3-2.6,4.5c-2.1,3.5-4.1,7-6.2,10.5c-1.1,1.8-1.7,3.8-1.7,5.9c0,2.4,0.7,4.7,2.2,6.7
				c0.1,0.1,0.2,0.2,0.2,0.4c-0.5-0.2-0.8-0.7-1.1-1.1c-1.3-1.8-2.4-3.8-3.5-5.7c-5.8-9.9-11.7-19.8-17.5-29.6
				c-1.1-1.8-2.1-3.6-3.2-5.4c-0.8-1.4-1.3-2.9-1.5-4.5c0-0.1-0.1-0.2-0.1-0.2c0-0.7,0-1.4,0-2.2c0.1-0.1,0.1-0.2,0.1-0.4
				c0.6-4,2.6-6.8,6.4-8.4c0.9-0.4,1.9-0.5,2.8-0.7c0.8,0,1.5,0,2.3,0c0.1,0,0.1,0.1,0.2,0.1c3.9,0.6,6.8,2.6,8.7,5.9
				c2.6,4.4,5.2,8.7,7.8,13.1C61.6,38.5,63.8,42.3,66,46z"/>
		</g>
		<g>
			<path class="st2" d="M35.9,96.1l-4.7-14.6h3.6l1.8,6.2c0.5,1.7,1,3.4,1.3,5.2H38c0.4-1.8,0.8-3.5,1.3-5.2l1.9-6.2h3.5l-4.9,14.6
				H35.9z"/>
			<path class="st2" d="M48.9,82.5c0,0.9-0.7,1.6-1.8,1.6c-1,0-1.7-0.7-1.7-1.6c0-1,0.7-1.7,1.7-1.7C48.3,80.9,48.9,81.6,48.9,82.5z
				 M45.5,96.1V85.5h3.3v10.6H45.5z"/>
			<path class="st2" d="M54,91.8c0.1,1.4,1.5,2,3,2c1.1,0,2-0.2,2.9-0.4l0.4,2.2c-1.1,0.4-2.4,0.7-3.8,0.7c-3.6,0-5.7-2.1-5.7-5.4
				c0-2.7,1.7-5.7,5.4-5.7c3.4,0,4.7,2.7,4.7,5.3c0,0.6-0.1,1.1-0.1,1.3H54z M57.9,89.6c0-0.8-0.3-2.1-1.9-2.1c-1.4,0-2,1.3-2,2.1
				H57.9z"/>
			<path class="st2" d="M66.6,82.5v3H69v2.4h-2.4v3.8c0,1.3,0.3,1.9,1.3,1.9c0.4,0,0.7,0,1-0.1l0,2.5c-0.4,0.2-1.2,0.3-2.1,0.3
				c-1.1,0-2-0.4-2.5-0.9c-0.6-0.6-0.9-1.6-0.9-3.1v-4.3H62v-2.4h1.4v-2.3L66.6,82.5z"/>
			<path class="st2" d="M70.9,88.9c0-1.3,0-2.4-0.1-3.4h2.9l0.2,1.5h0.1c0.4-0.7,1.5-1.7,3.3-1.7c2.2,0,3.8,1.4,3.8,4.6v6.3h-3.3
				v-5.9c0-1.4-0.5-2.3-1.7-2.3c-0.9,0-1.5,0.6-1.7,1.2c-0.1,0.2-0.1,0.5-0.1,0.8v6.1h-3.3V88.9z"/>
			<path class="st2" d="M89.6,96.1L89.4,95h-0.1c-0.7,0.8-1.8,1.3-3,1.3c-2.1,0-3.4-1.6-3.4-3.3c0-2.8,2.5-4.1,6.2-4.1v-0.2
				c0-0.6-0.3-1.4-1.9-1.4c-1.1,0-2.2,0.4-2.9,0.8l-0.6-2.1c0.7-0.4,2.2-0.9,4.1-0.9c3.5,0,4.7,2.1,4.7,4.6v3.7c0,1,0,2,0.2,2.6
				H89.6z M89.2,91.1c-1.7,0-3.1,0.4-3.1,1.7c0,0.8,0.6,1.3,1.3,1.3c0.8,0,1.5-0.5,1.7-1.2c0-0.2,0.1-0.4,0.1-0.6V91.1z"/>
			<path class="st2" d="M95.1,88.9c0-1.3,0-2.4-0.1-3.4h2.8l0.2,1.4H98c0.5-0.7,1.4-1.7,3.2-1.7c1.4,0,2.4,0.7,2.9,1.8h0
				c0.4-0.5,0.9-1,1.4-1.3c0.6-0.3,1.2-0.5,2-0.5c2,0,3.6,1.4,3.6,4.6v6.2h-3.2v-5.8c0-1.5-0.5-2.4-1.6-2.4c-0.8,0-1.3,0.5-1.5,1.1
				c-0.1,0.2-0.1,0.6-0.1,0.8v6.2h-3.2v-5.9c0-1.3-0.5-2.3-1.5-2.3c-0.8,0-1.3,0.7-1.5,1.2c-0.1,0.3-0.1,0.6-0.1,0.8v6.2h-3.2V88.9z
				"/>
			<path class="st2" d="M124.2,90.7c0,3.9-2.8,5.7-5.6,5.7c-3.1,0-5.5-2-5.5-5.5c0-3.4,2.3-5.6,5.7-5.6
				C122,85.3,124.2,87.5,124.2,90.7z M116.5,90.8c0,1.8,0.8,3.2,2.2,3.2c1.3,0,2.1-1.3,2.1-3.2c0-1.6-0.6-3.2-2.1-3.2
				C117.1,87.6,116.5,89.2,116.5,90.8z"/>
			<path class="st2" d="M126.1,96.1c0-0.7,0.1-2,0.1-3.2V80.7h3.3v6h0c0.6-0.9,1.7-1.5,3.2-1.5c2.5,0,4.4,2.1,4.4,5.4
				c0,3.8-2.4,5.7-4.9,5.7c-1.2,0-2.4-0.5-3.2-1.7h0l-0.1,1.5H126.1z M129.5,91.6c0,0.2,0,0.4,0.1,0.6c0.2,0.9,1,1.6,1.9,1.6
				c1.4,0,2.3-1.1,2.3-3c0-1.6-0.7-2.9-2.3-2.9c-0.9,0-1.7,0.7-1.9,1.6c0,0.2-0.1,0.4-0.1,0.6V91.6z"/>
			<path class="st2" d="M142.6,82.5c0,0.9-0.7,1.6-1.8,1.6c-1,0-1.7-0.7-1.7-1.6c0-1,0.7-1.7,1.7-1.7
				C141.9,80.9,142.6,81.6,142.6,82.5z M139.2,96.1V85.5h3.3v10.6H139.2z"/>
			<path class="st2" d="M145.1,80.7h3.3v15.4h-3.3V80.7z"/>
			<path class="st2" d="M153.6,91.8c0.1,1.4,1.5,2,3,2c1.1,0,2-0.2,2.9-0.4l0.4,2.2c-1.1,0.4-2.4,0.7-3.8,0.7
				c-3.6,0-5.7-2.1-5.7-5.4c0-2.7,1.7-5.7,5.4-5.7c3.4,0,4.7,2.7,4.7,5.3c0,0.6-0.1,1.1-0.1,1.3H153.6z M157.5,89.6
				c0-0.8-0.3-2.1-1.9-2.1c-1.4,0-2,1.3-2,2.1H157.5z"/>
		</g>
	</g>
</g>
</svg>
