<?xml version="1.0" encoding="utf-8"?>
<!-- Generator: Adobe Illustrator 21.0.0, SVG Export Plug-In . SVG Version: 6.00 Build 0)  -->
<svg version="1.1" id="Layer_1" xmlns="http://www.w3.org/2000/svg" xmlns:xlink="http://www.w3.org/1999/xlink" x="0px" y="0px"
	 viewBox="0 0 191.8 112" style="enable-background:new 0 0 191.8 112;" xml:space="preserve">
<style type="text/css">
	.st0{fill:#FFFFFF;}
	.st1{fill:#01918C;}
	.st2{fill:#D48431;}
</style>
<path class="st0" d="M179.8,112H12c-6.7,0-12-5.4-12-12V12C0,5.4,5.4,0,12,0h167.7c6.7,0,12,5.4,12,12V100
	C191.8,106.6,186.4,112,179.8,112z"/>
<g>
	<path class="st1" d="M30.3,44.2c0.9-1.2,1.9-2.2,2.8-3.2c6.9-7.1,15-12.3,24.1-16.2c7.4-3.1,15-5.2,22.9-6.5
		c6.2-1,12.4-1.4,18.6-1.2c14.9,0.4,29.2,3.5,42.5,10.4c6.5,3.4,12.5,7.6,17.7,12.8c0.2,0.2,0.4,0.3,0.4,0.6
		c-0.2,0.1-0.3-0.1-0.4-0.2c-5.9-5-12.7-8-20-9.9c-6.3-1.6-12.7-2.3-19.3-2c-9.2,0.4-18.1,2.4-26.3,6.8c-4,2.1-7.6,4.8-10.6,8.1
		c-0.2,0.3-0.5,0.4-0.8,0.4c-17.1,0-34.2,0-51.2,0C30.6,44.2,30.5,44.2,30.3,44.2z"/>
	<path class="st2" d="M162.3,67.8c-1.9,2.4-4,4.4-6.1,6.4c-9.2,8.2-20,13.5-31.9,16.9c-6.4,1.8-12.9,2.9-19.5,3.5
		c-4.6,0.4-9.2,0.5-13.8,0.2C84.4,94.5,78,93.6,71.7,92c-9.1-2.2-17.8-5.6-25.7-10.6c-4.4-2.7-8.4-5.8-12-9.5
		c-0.2-0.2-0.5-0.3-0.5-0.7c0.2-0.1,0.3,0,0.4,0.1c6.1,5.1,13.1,8.1,20.7,10c6.6,1.6,13.4,2.2,20.2,1.7c9.1-0.6,17.8-2.9,25.8-7.5
		c3.4-2,6.6-4.4,9.2-7.4c0.3-0.3,0.5-0.5,1-0.5c17,0,34.1,0,51.1,0C161.9,67.8,162,67.8,162.3,67.8z"/>
	<path class="st1" d="M142,62c-5.5,0-11,0-16.4,0c-0.4,0-0.8,0-1.2,0c-1-0.1-1.5-0.7-1.5-1.7c0-1.2,0-2.4,0-3.6
		c0-1.3-0.8-2.3-2.2-2.4c-1.5-0.1-3-0.1-4.4,0c-1.3,0.1-2.3,1.3-2.3,2.6c0,1.2,0,2.4,0,3.6c0,0.5-0.2,0.9-0.7,1.1
		c-1.9,0.7-3.8,0.8-5.6,0.1c-0.6-0.2-0.9-0.6-0.9-1.3c0-1.2,0-2.4,0-3.6c0-1.4-0.7-2.3-2.1-2.4c-2.1-0.2-4.2-0.2-6.4,0
		c-1.3,0.1-2.2,1.1-2.2,2.4c0,1.2,0,2.3,0,3.5c0,0.6-0.2,1-0.7,1.2c-2,0.9-3.9,0.8-5.9-0.1c-0.4-0.2-0.6-0.5-0.6-1
		c0-1.1,0-2.3,0-3.4c0-1.6-0.7-2.4-2.3-2.6c-0.4,0-0.8-0.1-1.2-0.1c-5.6,0-11.2,0-16.9,0c-0.2,0-0.7-0.2-0.7,0.3
		c0,0.5,0.2,0.8,0.7,0.9c0.4,0.1,0.9,0.1,1.3,0.1c2.8,0,5.6,0,8.4,0c0.3,0,0.7-0.2,0.8,0.2c0.2,0.7,0,1.4-0.5,1.6
		c-0.4,0.2-0.8,0.2-1.3,0.2c-2.8,0-5.6,0-8.4,0c-0.3,0-0.8-0.3-0.9,0.3c-0.1,0.8,0.1,1.4,0.7,1.6c0.4,0.1,0.8,0.1,1.3,0.1
		c3.1,0,6.3,0,9.4,0c0.3,0,0.8-0.2,0.9,0.2c0.1,0.5,0.2,1-0.3,1.4c-0.7,0.5-1.4,0.7-2.3,0.7c-4.1,0-8.1,0-12.2,0
		c-1,0-2.1,0.1-3.1-0.1c-1.3-0.3-1.5-0.6-1.5-1.9c0-2.2,0-4.4,0-6.6c0-1.1,0.4-1.6,1.5-1.7c0.4,0,0.8-0.1,1.2-0.1c8,0,16,0,24,0
		c1.2,0,1.3-0.1,1.5-1.3c0.1-0.4,0.4-0.7,0.7-0.8c1.8-0.7,3.6-0.8,5.4-0.1c0.6,0.2,1,0.6,1.1,1.3c0,0.6,0.4,0.9,1.1,0.9
		c2.8,0,5.6,0,8.4,0c0.7,0,1-0.4,1.1-1c0-0.6,0.3-0.9,0.8-1.1c1.8-0.7,3.6-0.8,5.4-0.1c0.6,0.2,1,0.5,1,1.3c0,0.6,0.5,0.9,1.1,0.9
		c1.7,0,3.4,0,5.1,0c7,0,14,0,20.9,0c0.3,0,0.6-0.2,0.8,0.2c0.2,0.6,0,1.4-0.4,1.6c-0.7,0.3-1.4,0.4-2.2,0.4c-2.9,0-5.8,0-8.6,0
		c-0.3,0-0.7-0.3-0.8,0.3c0,0.5,0,1.1,0.6,1.2c0.4,0.1,0.9,0.1,1.3,0.1c2.8,0,5.6,0,8.4,0c0.3,0,0.8-0.3,0.9,0.3
		c0.2,0.9,0,1.4-0.6,1.6c-0.3,0.1-0.7,0.1-1,0.1c-2.9,0-5.8,0-8.6,0c-0.3,0-0.8-0.3-0.9,0.3c-0.1,0.9,0.1,1.5,0.8,1.6
		c0.3,0.1,0.7,0.1,1,0.1c3.7,0,7.4,0,11.1,0c0.5,0,0.7-0.1,0.7-0.6c0-1.9,0-3.8,0-5.7c0-1,0.3-1.4,1.3-1.6c1.6-0.2,3.1-0.3,4.7,0.2
		c1,0.3,1.2,0.6,1.2,1.6c0,1.3,0,2.5,0,3.8c0,1.5,0.5,2,2,2c2.7,0,5.4,0,8.1,0c0.3,0,0.9-0.2,0.9,0.2c0.1,0.6,0.3,1.3-0.4,1.7
		c-0.6,0.4-1.3,0.6-2,0.6c-1.6,0-3.2,0-4.8,0C150.3,62,146.1,62,142,62z"/>
	<path class="st1" d="M51.6,55.1c-1.3,1.5-2.6,3-3.7,4.6c-1,1.3-2.2,2-3.8,2.2c-1.9,0.2-3.7,0.2-5.5-0.4c-0.8-0.3-1.4-0.7-1.9-1.3
		c-2.2-2.7-4.4-5.3-6.6-7.9c-0.1-0.2-0.3-0.3-0.5-0.6c2.3,0.1,4.5-0.2,6.7,0.4c0.9,0.3,1.6,0.7,2.1,1.5c1.1,1.7,2.3,3.4,3.5,5.1
		c0.3,0.4,0.4,0.5,0.8,0c1.2-1.7,2.4-3.4,3.5-5.2c0.6-0.9,1.4-1.5,2.5-1.6c2.9-0.2,5.8-0.3,8.8,0.1c0.3,0,0.5,0.2,0.7,0.2
		c0.6,0.2,0.9,0.6,0.9,1.3c0,2.3,0,4.6,0,6.9c0,0.6-0.2,1-0.7,1.2c-1.8,0.7-3.7,0.8-5.5,0.2c-0.7-0.2-1-0.7-0.9-1.4c0-1.7,0-3.3,0-5
		C51.7,55.1,51.7,55.1,51.6,55.1z"/>
	<path class="st2" d="M33,71c-0.2-0.1-0.4-0.3-0.5-0.6l0,0c0.3,0,0.5,0.3,0.7,0.5C33.1,70.9,33,71,33,71z"/>
	<path class="st2" d="M31.9,69.8C31.9,69.8,31.8,69.8,31.9,69.8C31.8,69.8,31.8,69.8,31.9,69.8C31.8,69.8,31.9,69.8,31.9,69.8
		L31.9,69.8z"/>
	<path class="st2" d="M31.9,69.8c0.1,0,0.2,0,0.2,0.1l0,0C32,69.9,31.9,69.9,31.9,69.8L31.9,69.8z"/>
	<path class="st2" d="M32,70c0.1,0,0.2,0,0.1,0.1l0,0C32.1,70,32.1,70,32,70L32,70z"/>
	<path class="st2" d="M32.2,70.1c0.1,0,0.2,0,0.1,0.1l0,0C32.3,70.2,32.2,70.1,32.2,70.1L32.2,70.1z"/>
	<path class="st2" d="M32.5,70.4c-0.1,0-0.1-0.1-0.1-0.1l0,0C32.4,70.2,32.5,70.3,32.5,70.4L32.5,70.4z"/>
	<path class="st2" d="M33.1,70.9c0.1,0.1,0.1,0.1,0,0.2c0,0-0.1-0.1-0.1-0.1C33,71,33.1,70.9,33.1,70.9z"/>
	<path d="M30.1,44.6"/>
</g>
</svg>
