<?xml version="1.0" encoding="utf-8"?>
<!-- Generator: Adobe Illustrator 21.0.0, SVG Export Plug-In . SVG Version: 6.00 Build 0)  -->
<svg version="1.1" id="Layer_1" xmlns="http://www.w3.org/2000/svg" xmlns:xlink="http://www.w3.org/1999/xlink" x="0px" y="0px"
	 viewBox="0 0 191.8 112" style="enable-background:new 0 0 191.8 112;" xml:space="preserve">
<style type="text/css">
	.st0{fill:#FFFFFF;}
	.st1{fill:#308BE3;}
	.st2{fill:#328DDD;}
</style>
<g>
	<path class="st0" d="M179.8,112H12.1c-6.7,0-12-5.4-12-12V12c0-6.7,5.4-12,12-12h167.7c6.7,0,12,5.4,12,12V100
		C191.9,106.6,186.5,112,179.8,112z"/>
	<g>
		<g>
			<path class="st1" d="M51.9,83.4L47.8,95h-3.2l-4.1-11.5h3.4l2.4,8.5l2.5-8.5H51.9z"/>
			<path class="st1" d="M57.1,79.2v2.8h-3v-2.8H57.1z M54.1,83.4h3V95h-3V83.4z"/>
			<path class="st1" d="M70.8,87v8h-3v-7c0-0.6-0.1-1.1-0.3-1.4c-0.3-0.5-0.9-0.8-1.7-0.8c-0.7,0-1.3,0.2-1.7,0.7
				c-0.4,0.5-0.7,1.1-0.7,1.9V95h-3V83.4h2.9v1.7c0.4-0.5,0.7-1,1.1-1.3c0.6-0.5,1.5-0.7,2.4-0.7c1.2,0,2.1,0.3,2.8,1
				C70.4,84.8,70.8,85.8,70.8,87z"/>
			<path class="st1" d="M83.6,94.5V95h-2.9c0-0.8,0,0,0-0.8c0-0.1,0-0.3,0-0.6c-0.5,0.5-0.9,0.9-1.3,1.1c-0.7,0.4-1.5,0.6-2.4,0.6
				c-1,0-1.8-0.3-2.4-0.8c-0.7-0.6-1.1-1.5-1.1-2.6c0-1.1,0.3-1.9,1-2.6c0.6-0.6,1.4-0.9,2.4-1.1l2.7-0.4c0.4-0.1,0.7-0.2,0.9-0.3
				c0.2-0.1,0.2-0.3,0.2-0.6c0-0.6-0.2-0.9-0.7-1.1c-0.3-0.1-0.7-0.2-1.3-0.2c-0.7,0-1.2,0.2-1.5,0.5c-0.2,0.2-0.3,0.6-0.4,1.1h-2.9
				c0.2-1.6,0.8-2.7,1.8-3.3c0.8-0.5,1.9-0.7,3.3-0.7c1.2,0,2.1,0.2,2.9,0.6c1.1,0.6,1.7,1.5,1.7,2.7v6.2 M80.6,90.8v-1.5
				c-0.2,0.1-0.4,0.3-0.7,0.3c-0.3,0.1-0.8,0.2-1.4,0.3c-0.7,0.1-1.1,0.3-1.4,0.5c-0.4,0.3-0.6,0.7-0.6,1.3c0,0.5,0.2,0.8,0.5,1.1
				c0.3,0.2,0.6,0.3,0.9,0.3c0.7,0,1.3-0.2,1.9-0.6C80.4,92.1,80.6,91.5,80.6,90.8z"/>
			<path class="st1" d="M89.5,83.4v1.6c0.4-0.6,0.8-1,1.2-1.3c0.6-0.4,1.4-0.6,2.3-0.6c1.3,0,2.4,0.5,3.3,1.5c1,1.1,1.4,2.6,1.4,4.5
				c0,1.7-0.4,3.2-1.1,4.3c-0.9,1.3-2.1,1.9-3.7,1.9c-0.9,0-1.7-0.2-2.3-0.7c-0.3-0.2-0.6-0.6-1-1.1l0,6h-3v-16H89.5z M89.5,89.5
				c0,0.9,0.2,1.7,0.6,2.3c0.5,0.7,1.2,1,2.1,1c0.9,0,1.5-0.4,2-1.2c0.3-0.6,0.5-1.4,0.5-2.3c0-1-0.2-1.8-0.6-2.4
				c-0.5-0.7-1.1-1.1-2-1.1c-1,0-1.6,0.4-2.1,1.1C89.7,87.5,89.5,88.4,89.5,89.5z"/>
			<path class="st1" d="M111,87v8h-3v-7c0-0.6-0.1-1.1-0.3-1.4c-0.3-0.5-0.9-0.8-1.7-0.8c-0.7,0-1.3,0.2-1.7,0.7
				c-0.4,0.5-0.7,1.1-0.7,1.9V95h-3V79.4h3v5.5c0.2-0.5,0.6-0.9,1.3-1.3c0.6-0.3,1.3-0.5,2.1-0.5c1.2,0,2.1,0.3,2.8,1
				C110.6,84.8,111,85.8,111,87z"/>
			<path class="st1" d="M125.6,89.2c0,2-0.6,3.5-1.8,4.6c-1.1,1-2.4,1.5-4.1,1.5c-1.7,0-3-0.5-4.1-1.5c-1.2-1.1-1.8-2.6-1.8-4.6
				c0-2,0.6-3.5,1.8-4.6c1.1-1,2.4-1.5,4.1-1.5c1.7,0,3,0.5,4.1,1.5C125,85.7,125.6,87.2,125.6,89.2z M122.5,89.2
				c0-1-0.2-1.7-0.5-2.3c-0.5-0.8-1.2-1.2-2.3-1.2c-1,0-1.8,0.4-2.3,1.2c-0.3,0.6-0.5,1.4-0.5,2.3c0,1,0.2,1.7,0.5,2.3
				c0.5,0.8,1.2,1.2,2.3,1.2c1,0,1.8-0.4,2.3-1.2C122.3,90.9,122.5,90.1,122.5,89.2z"/>
			<path class="st1" d="M138,87v8h-3v-7c0-0.6-0.1-1.1-0.3-1.4c-0.3-0.5-0.9-0.8-1.7-0.8c-0.7,0-1.3,0.2-1.7,0.7
				c-0.4,0.5-0.7,1.1-0.7,1.9V95h-3V83.4h2.9v1.7c0.4-0.5,0.7-1,1.1-1.3c0.6-0.5,1.5-0.7,2.4-0.7c1.2,0,2.1,0.3,2.8,1
				C137.6,84.8,138,85.8,138,87z"/>
			<path class="st1" d="M148.3,91.6h3.1c-0.4,1.3-1.1,2.2-2.1,2.9c-0.9,0.5-1.8,0.8-3,0.8c-1.8,0-3.1-0.5-4.1-1.4
				c-1.1-1.1-1.6-2.7-1.6-5c0-1.8,0.5-3.3,1.5-4.3c1-1,2.3-1.5,4-1.5c1.4,0,2.6,0.4,3.6,1.2c1.2,1.1,1.9,2.8,1.9,5.1V90h-7.9
				c0.1,1,0.4,1.7,0.8,2.2s1.1,0.7,1.9,0.7c0.5,0,0.9-0.1,1.2-0.3C147.9,92.3,148.2,92,148.3,91.6z M143.7,88h4.7
				c-0.1-0.9-0.4-1.5-0.8-1.9c-0.4-0.3-0.9-0.5-1.5-0.5C144.7,85.6,143.9,86.4,143.7,88z"/>
		</g>
		<path class="st2" d="M80.3,16.4c-2-2.5-7.5-6-13.8-2.2c-2.1,1.3-9.7,9.9-2,18.6c3.4,3.2,7,2.7,14.2,3.3
			c2.1,0.2,17.1,4.2,16.7,13.8c0.2,2.7,0.8,8.3-4.7,9.2c-4.6,0.8-12,4.7-6,12.2c1.3,1.8,9,4.6,10.8-3c0.8-3.4-1.2-10.4,3.4-10.9
			s10.5,1.1,12.6-7.3c1.2-5.2,3.2-11,8.7-13.4c2.6-0.6,3.4,0.3,10.9-1.3c1.6-0.7,9.1-5.1,4.8-14.6c-1.2-2.2-6.6-8.7-13.8-3.9
			c-1.4,0.9-3.9,4-4.2,10c-0.5,3.7-2,15.1-15.7,15.4c-3.6-0.5-12.2-2.5-17-14.1C82.5,20.7,81.6,18,80.3,16.4z"/>
	</g>
</g>
</svg>
