<?xml version="1.0" encoding="utf-8"?>
<!-- Generator: Adobe Illustrator 21.0.0, SVG Export Plug-In . SVG Version: 6.00 Build 0)  -->
<svg version="1.1" id="Layer_1" xmlns="http://www.w3.org/2000/svg" xmlns:xlink="http://www.w3.org/1999/xlink" x="0px" y="0px"
	 viewBox="0 0 900 900" style="enable-background:new 0 0 900 900;" xml:space="preserve">
<style type="text/css">
	.st0{fill:#01918C;}
	.st1{fill:#FFFFFF;}
	.st2{fill:#D48431;}
	.st3{fill:#D61921;}
	.st4{fill:#F5B828;}
	.st5{fill:#070403;}
	.st6{fill:#328DDD;}
	.st7{fill:#EA8932;}
	.st8{fill:#8A9298;}
	.st9{fill:#134A9F;}
	.st10{fill:#308BE3;}
	.st11{fill:#E12728;}
	.st12{fill:#FF0000;}
	.st13{fill:none;}
	.st14{fill:#C6C7C9;}
	.st15{fill:#020202;}
	.st16{fill:#060606;}
	.st17{fill:#FEFEFE;}
</style>
<circle class="st4" cx="451" cy="450" r="444"/>
<circle class="st1" cx="451" cy="450" r="432.1"/>
<g>
	<g>
		<path class="st5" d="M444.6,594.3c0-16.6,0-33.3,0-49.9c0-7.5,2.6-10.6,8.8-10.6c5.8,0,8.8,3.4,8.8,10.7
			c0.1,12.4,0.3,24.9-0.1,37.3c-0.2,5.7,0.9,8.1,7.4,7.8c13.3-0.6,26.6-0.3,39.9-0.1c4.2,0,8.4,0.4,12.6,1.2
			c10.8,2.1,16.7,8.6,17.2,19.7c0.5,11.7,0.5,23.5,0.1,35.3c-0.4,12.4-6.7,19.5-19,20.9c-18.8,2.1-37.7,2.1-56.5,0
			c-12.8-1.5-19-9.3-19.1-22.2C444.5,627.6,444.6,611,444.6,594.3z M489.7,606c0-0.1,0-0.2,0-0.4c-7.1,0-14.2,0.3-21.3-0.1
			c-4.8-0.3-6.6,0.9-6.4,6.1c0.5,10.2,0.4,20.4,0.1,30.6c-0.2,6,2.4,8.6,8.1,8.6c15.1,0,30.1,0.1,45.2,0.2c4.6,0,6.8-2.1,6.8-6.9
			c-0.1-10-0.2-19.9,0-29.9c0.1-5.6-2.6-8.2-7.9-8.2C506.1,606,497.9,606,489.7,606z"/>
		<path class="st5" d="M201.9,633.9c0-7.5-0.1-15.1,0-22.6c0.3-12.6,5.9-20,18.3-21.4c14-1.7,28.3-3,42.1,2.1
			c1.5,0.6,2.9,0.7,4.5,0.1c14-5.2,28.5-3.7,42.8-2.3c12.6,1.2,18.9,8.7,19.1,21.4c0.3,15.8,0.1,31.5,0,47.3c0,6-3.5,9.4-8.9,9.3
			c-5.9-0.2-8.6-3-8.7-9.3c-0.1-14.2,0.1-28.4-0.1-42.6c-0.1-9-1.4-10.3-10.5-10.5c-6.2-0.1-12.4,0.2-18.6,0.1c-6.3-0.1-8.7,3-8.6,9
			c0.1,14.7,0,29.3,0.1,44c0,4-1.3,7-5,8.6c-3.6,1.5-6.9,1-10-1.4c-2.6-2-2.8-4.8-2.8-7.8c0-14,0.1-28,0-42
			c0-9.2-1.1-10.2-10.4-10.5c-6-0.2-12,0.2-18,0.2c-5.6,0-8,2.7-7.9,8.2c0.1,14.4,0.1,28.9,0,43.3c0,7.5-2.7,10.8-8.6,10.8
			c-6.3,0-8.9-3.2-9-11.1C201.9,649,201.9,641.4,201.9,633.9C201.9,633.9,201.9,633.9,201.9,633.9z"/>
		<path class="st5" d="M387,667.1c-9.3,0.5-18.6,1-27.9-0.3c-12.9-1.8-19.2-8.8-19.4-21.8c-0.2-10.9-0.2-21.7,0-32.6
			c0.2-13.2,6-20.5,19.2-22c18.3-2.1,36.8-1.8,55.1-0.2c13.6,1.2,19.6,9.2,19.7,23c0.1,10.2,0.1,20.4,0,30.6
			c-0.1,14.9-6.5,22.1-21.4,23.2C403.9,667.6,395.4,667.1,387,667.1z M386.5,650.7c0,0,0,0.1,0,0.1c7.5,0,15.1,0,22.6,0
			c4.4,0,6.5-2.1,6.4-6.5c0-10.6,0-21.3,0-31.9c0-4-1.6-6.3-5.8-6.5c-15.3-0.5-30.6-0.7-45.8,0.1c-4.7,0.3-6.4,2.8-6.4,7.4
			c0.2,10.2,0.2,20.4,0,30.6c-0.1,4.5,1.9,6.6,6.3,6.6C371.5,650.7,379,650.7,386.5,650.7z"/>
		<path class="st5" d="M659.1,637.6c-10,0-20-0.1-29.9,0.1c-2,0-5.4-1.9-5.9,2c-0.5,3.7-0.7,7.7,3.9,9.5c3.8,1.5,7.8,1.7,11.8,1.8
			c4.7,0.1,9.3-0.1,14,0.1c4.5,0.1,6.9,2.7,7.2,7.1c0.4,4.4-1,8.6-5.8,9c-13.3,1.2-26.6,1.5-38.8-5.3c-6-3.3-9.4-8.7-9.9-15.6
			c-0.8-12.2-1-24.4,0.1-36.5c1-11,6.4-16.6,17.2-19c9.6-2.1,19.4-1.1,29.2-1.2c8.9-0.1,17.8-0.3,26.6,0.1
			c15.5,0.8,21.4,7.2,21.5,22.6c0,5.5,0.1,11.1,0,16.6c-0.1,5.9-3,9-9.1,8.9c-5.3-0.1-10.6,0-16,0
			C669.8,637.6,664.5,637.6,659.1,637.6z M652.8,620.7c8.4,0,16.8,0,25.2,0c1.5,0,3.7,0.6,4.1-1.1c0.8-3.9,1.2-8.1-0.2-11.8
			c-1.1-2.9-4.6-2.1-7.1-2.1c-11.9-0.1-23.9-0.1-35.8,0c-3.7,0-7.6,0-11.2,0.7c-7,1.3-4.2,7.2-4.6,11.3c-0.4,4.7,3.5,2.9,5.7,3
			C636.9,620.8,644.8,620.7,652.8,620.7z"/>
		<path class="st5" d="M577.9,600c0-18.2,0-36.4,0-54.6c0-8.2,2.5-11.7,8.4-11.6c5.8,0,8.6,3.6,8.6,11.8c0.1,30.9,0,61.7,0,92.6
			c0,6.4,0.1,12.9-0.1,19.3c-0.2,7.1-3.1,10.3-8.7,10.3c-5.7-0.1-8.3-3.3-8.3-10.4C577.9,638.1,577.9,619.1,577.9,600z"/>
		<path class="st5" d="M566.9,627.2c0,10,0.1,19.9,0,29.9c-0.1,6.9-3,10.5-8.3,10.5c-5.3,0-8.3-3.5-8.3-10.5
			c-0.1-19.9-0.1-39.8,0-59.8c0-7.2,2.8-10.4,8.4-10.3c5.7,0.1,8.3,3.2,8.3,10.3C567,607.3,566.9,617.3,566.9,627.2z"/>
		<path class="st5" d="M558.7,583.4c-6,0.1-8.2-3-8.2-8.3c0.1-5.5,3.2-8,8.3-7.9c5.2,0.1,8.1,3.2,7.9,8.5
			C566.6,580.8,563.8,583.8,558.7,583.4z"/>
	</g>
	<g>
		<path class="st4" d="M447.7,522.9L306.2,381.4c-1.8-1.8-1.8-4.8,0-6.6l141.5-141.5c1.8-1.8,4.8-1.8,6.6,0l141.5,141.5
			c1.8,1.8,1.8,4.8,0,6.6L454.3,522.9C452.5,524.8,449.5,524.8,447.7,522.9z"/>
		<path class="st5" d="M552.2,377.7c0.2,6.9-3.1,12.2-7.9,16.9c-23.9,23.8-47.7,47.7-71.6,71.5c-3.3,3.3-6.4,6.8-9.9,9.8
			c-8.6,7.2-20.5,7-28.5-0.9c-25.7-25.4-51.4-51-76.7-76.7c-8.8-8.9-7.9-21.7,1.6-31.6c10.8-11.1,22-22,32.9-33
			c16.8-16.8,33.6-33.6,50.3-50.4c4.1-4.1,8.7-7,14.8-5.9c5.9,1.1,10.4,4.3,12,10.2c1.7,6.2,0.4,11.7-4.4,16.5
			c-17.8,17.7-35.5,35.4-53.2,53.1c-6.6,6.6-13.2,13.2-19.8,19.8c-5.3,5.4-5.4,7.6-0.3,12.7c17.3,17.3,34.7,34.3,51.8,51.7
			c4.2,4.2,7.5,3.8,11.2,0c19.9-20,39.7-39.9,59.7-59.8c3.1-3.1,3.6-5.2-0.1-8.4c-4.9-4.2-9.3-8.9-13.7-13.6c-2.1-2.3-3.6-2.6-5.8,0
			c-2.3,2.7-4.9,5.2-7.7,7.3c-6.9,5.3-15.4,4.5-20.9-1.7c-5.1-5.8-5-14.5,0.7-20.6c5.2-5.5,10.5-10.9,16-16c8.6-7.9,21.2-8,29.6,0
			c11.5,11.1,22.8,22.4,33.9,33.8C550.5,366.6,552.4,371.8,552.2,377.7z"/>
	</g>
</g>
</svg>
