<?xml version="1.0" encoding="utf-8"?>
<!-- Generator: Adobe Illustrator 21.0.0, SVG Export Plug-In . SVG Version: 6.00 Build 0)  -->
<svg version="1.1" id="Layer_1" xmlns="http://www.w3.org/2000/svg" xmlns:xlink="http://www.w3.org/1999/xlink" x="0px" y="0px"
	 viewBox="0 0 900 900" style="enable-background:new 0 0 900 900;" xml:space="preserve">
<style type="text/css">
	.st0{fill:#01918C;}
	.st1{fill:#FFFFFF;}
	.st2{fill:#D48431;}
	.st3{fill:#D61921;}
	.st4{fill:#F5B828;}
	.st5{fill:#070403;}
	.st6{fill:#328DDD;}
	.st7{fill:#EA8932;}
	.st8{fill:#8A9298;}
	.st9{fill:#134A9F;}
	.st10{fill:#308BE3;}
	.st11{fill:#E12728;}
	.st12{fill:#FF0000;}
	.st13{fill:none;}
	.st14{fill:#C6C7C9;}
	.st15{fill:#020202;}
	.st16{fill:#060606;}
	.st17{fill:#FEFEFE;}
</style>
<circle class="st3" cx="451" cy="450" r="444"/>
<circle class="st1" cx="451" cy="450" r="432.1"/>
<g>
	<path class="st3" d="M719.9,336.7c11.1-3.7,21.6-2.1,32.1,2.1c16.3,6.9,28.5,19,37.9,33.7c7.4,11.6,12.6,24.2,13.7,37.9
		c0.5,7.9-0.5,15.8-4.7,23.2c-19,32.7-37.9,65.3-56.9,98c0,0.5-0.5,1.1-1.1,1.1c0-2.1,1.1-4.2,1.6-5.8c3.2-10,4.2-20,1.1-30
		c-3.2-10-9.5-16.9-17.4-23.2c-9-7.4-19.5-12.6-29.5-17.9c-11.1-6.3-22.7-12.1-31.1-22.7c3.7-17.4,9-34.3,16.3-50.1
		c6.3-13.2,13.7-25.8,24.2-36.4c3.7-3.7,7.9-6.3,12.6-9.5l0,0C719.4,337.3,719.9,337.3,719.9,336.7z"/>
	<path class="st14" d="M718.9,337.3c-4.2,3.2-8.4,5.8-12.6,9.5c-10.5,10.5-17.9,23.2-24.2,36.4c-7.4,15.8-12.6,32.7-16.3,50.1
		c-3.2,12.6-4.7,25.8-5.3,39c-0.5,7.9,0,15.3,0,23.2c0.5,6.3,1.1,12.6,2.1,19c2.1,12.6,5.8,24.2,12.1,35.8c-1.1,0.5-1.1-0.5-1.6-1.1
		c-11.1-17.9-22.1-36.4-33.7-54.3c-8.4-14.2-17.4-27.9-26.3-42.2c-7.4-11.6-13.7-23.7-16.3-36.9c-2.1-10-2.1-20,2.6-29.5
		c3.2-6.3,7.9-10,14.2-12.1c19.5-6.9,39-13.2,59-20c14.8-5.3,30-10.5,44.8-15.3C717.8,337.3,718.4,337.3,718.9,337.3z"/>
	<path class="st15" d="M674.6,549.6c-6.3-11.1-10-23.2-12.1-35.8c-1.1-6.3-1.6-12.6-2.1-19c1.1,0,2.1,0.5,3.2,1.1
		c26.9,12.6,53.7,13.7,80.6,0.5c3.2,10,2.1,20-1.1,30c-0.5,2.1-1.6,3.7-1.6,5.8l0,0c-0.5,0-0.5,0.5-0.5,1.1
		c-5.3,10-10.5,19.5-20,26.3c-13.7,9-31.1,7.4-42.2-4.7C677.3,553.8,676.2,551.2,674.6,549.6z"/>
	<path class="st16" d="M507.6,429.5c5.3-6.9,11.6-11.1,20.6-12.6c10.5-1.6,17.9,5.3,17.9,15.8c0,12.6-0.5,25.3,0.5,37.9
		c0,2.1,0.5,4.2,0.5,6.3c0,1.6,0,2.1-1.6,2.1c-2.6,0-5.3,0-8.4,0c-2.1,0-2.1-0.5-2.1-2.1c0-9.5,0-19.5,0-28.5c0-4.7,0-9.5-0.5-13.7
		c-1.6-4.7-4.2-6.9-9-7.4c-3.7,0-6.9,0.5-10.5,2.1c-4.7,2.1-7.4,4.7-7.4,11.1c0.5,12.6-0.5,24.8,1.6,37.4c0,1.6,0,1.6-1.6,1.6
		c-3.7,0-6.9,0-10.5,0c-2.1,0-1.6-1.6-1.6-2.1c0-12.6,0-24.8,0-37.4c0-9.5-4.2-13.7-13.7-12.6c-1.6,0-3.7,0.5-4.7,1.6
		c-6.9,2.6-9,5.3-9,13.2c0.5,11.6-0.5,23.2,0.5,35.3c0,1.6,0,2.1-1.6,2.1l0,0c-3.7,0-7.4,1.6-9.5-0.5c-2.1-1.6-0.5-6.3-0.5-9.5
		c0-10.5,0-20.6,0.5-31.6c0-3.7,0-6.3-1.6-9.5c-0.5-2.1-1.6-3.7-2.6-4.2c-3.7-2.6-3.7-3.7,0.5-5.3c2.1-0.5,4.2-1.6,6.3-1.6
		c6.3,0,7.4,1.6,8.4,7.4c0,0.5-0.5,2.6,0.5,2.6c1.1,0,1.6-1.6,2.1-1.6c5.3-5.3,11.6-9,19.5-9C498.6,416.3,504.4,420.5,507.6,429.5z
		 M469.6,428.4C469.6,427.9,469.6,427.9,469.6,428.4c-0.5,0-0.5,0-0.5,0S469.1,428.4,469.6,428.4L469.6,428.4z"/>
	<path class="st16" d="M151.9,439c0-11.6,0-23.2,0-35.3c0-8.4,0-8.4-8.4-8.4c-2.6,0-6.3,0-9,0.5c-3.7,0.5-6.3,2.1-7.4,5.3
		c0,0.5-0.5,2.1-1.6,1.6c-0.5,0-0.5-1.6-0.5-2.1c0-2.1,0-4.2,0-6.3c0.5-6.3,2.1-6.9,7.4-6.9c17.9,1.6,36.4,1.6,54.3,0
		c2.1,0,3.7,0.5,4.2,2.6c1.6,3.7,1.6,7.4,0.5,11.1c0,0.5,0,1.6-0.5,1.6c-0.5,0-0.5,0-1.6-0.5c-2.1-5.3-6.9-6.3-12.6-6.3
		c-2.6,0-6.3,0-9,0c-2.6,0-3.7,0.5-3.7,3.7c0,6.9-0.5,13.2-0.5,20c0,19.5-0.5,38.5,0.5,57.4c0,2.1-0.5,2.1-2.1,2.1c-2.6,0-6.3,0-9,0
		c-2.1,0-2.6-0.5-2.6-2.6C151.9,463.7,151.4,451.6,151.9,439L151.9,439z"/>
	<path class="st16" d="M446.5,446.3c0,22.1-20,37.4-40.6,31.6c-11.1-2.6-15.8-11.1-17.9-21.6c-3.7-15.3,2.6-29.5,15.8-35.8
		C421.7,411.6,446.5,419.5,446.5,446.3z M432.8,450.5c0-9-2.1-17.9-9-24.2c-6.9-6.9-15.8-4.7-20,3.7c-2.6,5.3-3.7,11.1-2.6,16.3
		c0.5,9,2.1,17.4,8.4,23.2c5.3,6.3,13.2,5.3,17.9-1.6C431.2,463.2,431.7,456.9,432.8,450.5z"/>
	<path class="st16" d="M321.6,461.1c0,4.7-1.6,8.4-4.2,11.1c-9,8.4-26.3,10.5-36.4,4.2c-8.4-4.7-11.6-13.2-11.6-22.1
		c-0.5-11.6,2.1-22.1,10.5-30.6c8.4-7.4,21.6-9,30.6-2.6c6.3,4.2,9,9.5,9.5,17.4v0.5c0.5,6.9,0,7.4-6.9,7.4c-9.5,0-19.5,0-28.5-0.5
		c-2.6,0-3.7,0.5-3.7,3.7c0,3.2,0,5.3,1.6,8.4c3.7,11.1,13.7,15.8,26.3,13.2C312.6,467.9,317.4,465.8,321.6,461.1z M294.7,441.6
		C294.7,441.1,294.7,441.1,294.7,441.6c3.7-0.5,7.4-0.5,11.1-0.5c1.6,0,2.1-0.5,2.1-2.1c0-3.7-1.6-6.9-2.6-10.5
		c-4.2-7.4-14.2-7.4-19.5,0c-2.1,3.7-3.7,7.4-4.2,11.1c-0.5,2.1,0,2.1,2.1,2.1C287.3,441.1,290.5,441.6,294.7,441.6z"/>
	<path class="st16" d="M234.6,461.1c0,4.7-1.6,8.4-4.2,11.1c-9.5,9.5-29,10.5-40,2.1c-5.3-4.2-7.4-10.5-8.4-16.3
		c-1.6-11.6,0.5-22.1,8.4-31.1c7.9-9,22.1-11.6,32.1-5.3c6.9,4.2,9.5,11.1,9.5,18.4c0,5.3,0,6.3-6.3,6.3c-9,0-17.9,0-26.9-0.5
		c-6.3,0-6.3-0.5-6.3,5.3c0.5,14.2,12.6,22.7,26.9,18.4C226.7,468.5,231.5,465.8,234.6,461.1z M208.8,441.6
		C208.8,441.1,208.8,441.1,208.8,441.6c3.7-0.5,6.9-0.5,11.1-0.5c2.1,0,2.6-0.5,2.1-2.1c0-3.7-1.6-7.4-3.7-10.5
		c-4.7-6.9-14.2-6.9-18.4,0c-2.1,3.7-3.7,7.4-4.2,11.1c-0.5,2.1,0,2.6,2.1,2.1C200.9,441.1,205.1,441.6,208.8,441.6z"/>
	<path class="st16" d="M380.1,459.5c1.6,4.2,0,7.4-2.1,10.5c-7.4,8.4-17.4,11.1-28.5,8.4c-10.5-2.1-16.3-9-18.4-20
		c-2.1-12.6-0.5-23.2,8.4-33.2c9-11.1,25.3-10.5,34.3-6.3c2.1,0.5,3.7,2.1,4.2,3.7c1.6,2.1,2.1,4.7,0,7.4c-1.6,2.6-4.2,2.6-6.9,2.1
		c-1.6,0-2.1-0.5-2.6-2.1c-2.6-6.9-11.6-9.5-17.9-4.7c-6.3,5.3-8.4,11.6-9,19.5c-0.5,6.9,0.5,13.2,4.7,18.4c6.9,9,18.4,9.5,28.5,2.1
		C376.9,463.7,378,461.6,380.1,459.5z"/>
	<path class="st16" d="M258.3,436.3c-0.5,13.7-0.5,26.9,0.5,40.6c0,2.1-0.5,2.1-2.1,2.1c-3.7,0-6.9,0-10.5,0c-1.6,0-1.6-0.5-1.6-2.1
		c0-16.3,0-33.2,0.5-49c0-7.4,0-15.8,0-23.2c0-4.2-1.6-8.4-4.7-11.6c-1.6-1.6-0.5-1.6,0-2.1c3.7-2.1,7.4-2.6,11.1-2.6
		c3.7,0.5,5.3,2.1,6.3,6.3c1.6,6.3,0,12.6,0,18.4C258.3,420.5,258.3,428.4,258.3,436.3z"/>
	<g>
		<path class="st16" d="M117.6,445.3c0,9.5-1.1,19.5,0,29.5c0.5,4.2,0.5,4.2-3.7,4.2c-3.2,0-6.3,0-9.5,0c-1.6,0-2.1-0.5-2.1-2.1
			c0.5-10,0.5-20.6,1.1-30.6c0-6.3,1.1-12.6,0-19.5c-0.5-1.6-1.1-4.2-1.6-5.3c-0.5-1.1-1.6-1.6-2.1-1.6c-1.6-0.5-1.6-1.6-1.6-2.6
			c0-1.6,0.5-2.6,2.1-3.7c2.6-1.6,5.8-2.1,9-2.1c6.3-0.5,9.5,2.1,9.5,9c0,6.9-0.5,13.7-0.5,20.6
			C117.6,441.6,117.6,443.2,117.6,445.3z"/>
		<path class="st16" d="M117.1,393.6c0,4.7-4.2,9-8.4,9c-4.7,0-9-4.2-9-8.4c0-4.7,3.7-8.4,9-8.4C113.4,385.7,117.1,390,117.1,393.6z
			"/>
	</g>
	<path class="st3" d="M740.5,534.3c0-0.5,0-1.1,0.5-1.1C741.5,533.3,741.5,533.8,740.5,534.3z"/>
	<path class="st14" d="M719.9,336.7c0,0.5-0.5,0.5-1.1,0.5C719.4,336.7,719.9,336.7,719.9,336.7z"/>
	<path class="st17" d="M469.6,428.4L469.6,428.4c-0.5,0.5-0.5,0-0.5,0S469.6,427.9,469.6,428.4C469.6,427.9,469.6,427.9,469.6,428.4
		z"/>
</g>
</svg>
