<?xml version="1.0" encoding="utf-8"?>
<!-- Generator: Adobe Illustrator 21.0.0, SVG Export Plug-In . SVG Version: 6.00 Build 0)  -->
<svg version="1.1" id="Layer_1" xmlns="http://www.w3.org/2000/svg" xmlns:xlink="http://www.w3.org/1999/xlink" x="0px" y="0px"
	 viewBox="0 0 900 900" style="enable-background:new 0 0 900 900;" xml:space="preserve">
<style type="text/css">
	.st0{fill:#01918C;}
	.st1{fill:#FFFFFF;}
	.st2{fill:#D48431;}
	.st3{fill:#D61921;}
	.st4{fill:#F5B828;}
	.st5{fill:#070403;}
	.st6{fill:#328DDD;}
	.st7{fill:#EA8932;}
	.st8{fill:#8A9298;}
	.st9{fill:#134A9F;}
	.st10{fill:#308BE3;}
	.st11{fill:#E12728;}
	.st12{fill:#FF0000;}
	.st13{fill:none;}
	.st14{fill:#C6C7C9;}
	.st15{fill:#020202;}
	.st16{fill:#060606;}
	.st17{fill:#FEFEFE;}
</style>
<circle class="st9" cx="451" cy="450" r="444"/>
<circle class="st1" cx="451" cy="450" r="432.1"/>
<g>
	<path class="st9" d="M100.1,430.1h12.9v6.8c2.1-2.6,5-4.5,8.6-5.8c3.6-1.3,9.6-1.9,18-1.9c11.2,0,19.3,0.8,24.3,2.5
		c5,1.7,8.5,4.3,10.6,7.8c1.7-3.4,4.9-5.9,9.6-7.7c4.7-1.8,12-2.7,21.9-2.7c9.3,0,16.4,0.6,21.1,1.8c4.7,1.2,8.6,3.5,11.6,6.7
		c2.2,2.6,3.7,5.4,4.4,8.5c0.7,3.1,1,8.6,1,16.5v36.1h-12.8v-38.6c0-8.1-1.2-13.4-3.5-15.7c-3.1-3-10.4-4.5-21.9-4.5
		c-6.7,0-11.7,0.4-15.1,1.3c-3.4,0.9-5.9,2.3-7.6,4.3c-1.8,2.1-3,4.9-3.6,8.5c-0.7,3.6-1,9.4-1,17.6v27.3h-12.8v-38.6
		c0-4.7-0.2-8.2-0.7-10.4c-0.5-2.2-1.4-3.9-2.7-5.1c-3.2-3.1-10.6-4.7-22-4.7c-6.7,0-11.8,0.4-15.3,1.3c-3.5,0.9-6.1,2.4-8,4.4
		c-1.6,1.8-2.7,4.4-3.2,7.7c-0.5,3.3-0.8,9.3-0.8,18.1v27.3h-12.8V430.1z"/>
	<path class="st9" d="M296.1,429.2c10.7,0,18.6,0.3,23.7,1c5.2,0.7,9.2,1.8,12.1,3.6c4.5,2.7,7.7,6.5,9.7,11.3
		c1.9,4.8,2.9,11.3,2.9,19.4c0,9-1.2,16-3.5,20.7c-1.7,3.6-4,6.5-6.9,8.6c-2.9,2.1-6.7,3.6-11.4,4.5c-4.5,0.9-11.8,1.3-22,1.3
		c-9.6,0-16.9-0.3-21.9-1c-5-0.7-9.1-1.8-12.3-3.6c-4.7-2.5-8-6.2-10-11c-2-4.8-3-11.5-3-20c0-9.6,1.4-16.8,4.3-21.7
		c2.9-5.2,7-8.7,12.3-10.5C275.3,430.2,284,429.3,296.1,429.2z M297.8,440c-7,0-12.2,0.2-15.7,0.7c-3.5,0.5-6.2,1.4-8.2,2.7
		c-2.3,1.5-4,4-5.1,7.4c-1.1,3.4-1.7,8.1-1.7,14c0,6.8,0.7,11.8,2.2,15c1.5,3.2,3.9,5.5,7.3,6.9c3.9,1.5,11.7,2.3,23.3,2.3
		c7.6,0,13.1-0.3,16.6-0.8c3.5-0.5,6.2-1.5,8.2-3c2.2-1.6,3.8-4,4.8-7.2c1-3.2,1.5-7.8,1.5-13.8c0-7.1-0.8-12.2-2.3-15.4
		c-1.7-3.5-4.5-5.8-8.5-7C316.2,440.6,308.7,440,297.8,440z"/>
	<path class="st9" d="M355.2,400.5h12.8v37.6h-1.1c2.3-3.5,5.6-5.9,9.8-7.1c4.2-1.2,11.1-1.8,20.8-1.8c11.2,0,19.2,0.4,24,1.1
		c4.8,0.7,8.8,2.2,12,4.4c3.9,2.8,6.7,6.3,8.3,10.5c1.8,4.7,2.8,11.5,2.8,20.2c0,9.7-1.4,16.9-4.3,21.7c-3.9,6.5-10.9,10.5-21,11.8
		c-4.1,0.5-10.7,0.8-19.9,0.8c-10.9,0-18.5-0.6-22.7-1.8c-4.2-1.2-7.6-3.8-10.1-7.6h1.2v8.6h-12.6V400.5z M397.7,440
		c-7,0-12.2,0.3-15.7,0.8c-3.5,0.5-6.1,1.5-8,2.9c-2.3,1.6-4,4-5,7.2c-1,3.2-1.5,7.8-1.5,13.8c0,8,0.8,13.4,2.5,16.3
		c1.8,3.2,4.9,5.4,9,6.4c4.2,1.1,12.1,1.6,23.9,1.6c6.1,0,10.8-0.3,14-0.9c3.2-0.6,5.9-1.6,8.1-3.2c2-1.4,3.5-3.7,4.5-6.9
		c1-3.2,1.5-7.6,1.5-13.4c0-7.7-0.9-13.2-2.6-16.5c-1.8-3.3-4.7-5.5-8.6-6.6C416,440.6,408.6,440,397.7,440z"/>
	<rect x="455.2" y="405.4" class="st11" width="12.8" height="14.1"/>
	<rect x="455.2" y="430.1" class="st9" width="12.8" height="68.8"/>
	<path class="st11" d="M471.2,430.1h10.1c0.2-6.2,0.6-10.8,1.3-13.8c0.7-2.9,1.9-5.5,3.8-7.7c2.5-2.8,5.7-4.7,9.7-5.9
		c4-1.1,10.2-1.8,18.7-2.1l14.6-0.4l-14.8,11c-5.5,0.2-9.5,0.5-11.8,1.1c-2.4,0.5-4.2,1.5-5.5,2.8c-1.1,1.2-1.8,2.7-2.2,4.5
		c-0.4,1.8-0.6,5.3-0.7,10.4h33.7l-12.5,10.5h-21.6v58.3h-12.8v-58.3h-10.1V430.1z"/>
	<path class="st11" d="M559.4,429.2c10.7,0,18.6,0.3,23.7,1c5.2,0.7,9.2,1.8,12.1,3.6c4.5,2.7,7.7,6.5,9.7,11.3
		c1.9,4.8,2.9,11.3,2.9,19.4c0,9-1.2,16-3.5,20.7c-1.7,3.6-4,6.5-6.9,8.6c-2.9,2.1-6.7,3.6-11.4,4.5c-4.5,0.9-11.8,1.3-22,1.3
		c-9.6,0-16.9-0.3-21.9-1c-5-0.7-9.1-1.8-12.3-3.6c-4.7-2.5-8-6.2-10-11c-2-4.8-3-11.5-3-20c0-9.6,1.4-16.8,4.3-21.7
		c2.9-5.2,7-8.7,12.3-10.5C538.7,430.2,547.3,429.3,559.4,429.2z M561.1,440c-7,0-12.2,0.2-15.7,0.7c-3.5,0.5-6.2,1.4-8.2,2.7
		c-2.3,1.5-4,4-5.1,7.4c-1.1,3.4-1.7,8.1-1.7,14c0,6.8,0.7,11.8,2.2,15c1.5,3.2,3.9,5.5,7.3,6.9c3.9,1.5,11.7,2.3,23.3,2.3
		c7.6,0,13.1-0.3,16.6-0.8c3.5-0.5,6.2-1.5,8.2-3c2.2-1.6,3.8-4,4.8-7.2c1-3.2,1.5-7.8,1.5-13.8c0-7.1-0.8-12.2-2.3-15.4
		c-1.7-3.5-4.5-5.8-8.5-7C579.5,440.6,572.1,440,561.1,440z"/>
	<path class="st11" d="M618,430.1h12.8v10.2h-1c2.2-4.2,5.7-7,10.6-8.6c4.9-1.6,12.9-2.4,24.1-2.4c9.8,0,17,0.6,21.9,1.7
		c4.8,1.1,8.7,3.1,11.5,6.1c2.1,2.3,3.6,5.2,4.5,8.6c0.9,3.4,1.3,8.3,1.3,14.6v38.8h-12.8v-34.2c0-6-0.2-10.3-0.7-12.9
		c-0.5-2.6-1.5-4.7-2.9-6.4c-1.7-1.9-4.2-3.3-7.8-4.2c-3.5-0.8-8.9-1.2-16.2-1.2c-8.1,0-14.4,0.6-18.8,1.7c-4.4,1.2-7.7,3-9.9,5.6
		c-1.5,1.9-2.5,4.1-3,6.6c-0.5,2.4-0.7,6.8-0.7,13.1v31.9H618V430.1z"/>
	<path class="st11" d="M788.6,476.7h13.2c-0.2,8.7-3.1,14.7-8.9,18.1c-5.7,3.3-15.5,5-29.4,5c-11.3,0-20-0.5-26-1.3
		c-6-0.9-10.6-2.4-13.7-4.6c-7-5-10.5-14.7-10.5-29.1c0-10.1,1.5-17.7,4.4-22.7c2.8-5,7-8.3,12.4-10.1c5.4-1.8,14.2-2.6,26.5-2.6
		c11.7,0,20.2,0.6,25.6,1.9c5.3,1.3,9.6,3.7,12.9,7.4c2.6,3,4.4,6.5,5.4,10.4c1,3.9,1.5,10.1,1.6,18.6h-75.1
		c0.3,7.8,1.9,13.2,4.8,16.2c1.8,1.9,4.9,3.3,9.2,4c4.3,0.8,11.5,1.1,21.4,1.1c7.5,0,13-0.3,16.4-1c3.4-0.7,5.9-1.9,7.4-3.6
		C787.4,483,788.2,480.4,788.6,476.7z M788,457.1c0-5.9-1.7-10.1-5-12.6c-2.1-1.6-5.2-2.7-9.1-3.4c-4-0.7-9.8-1-17.6-1
		c-6.8,0-12,0.3-15.4,0.9c-3.5,0.6-6.2,1.7-8.1,3.1c-3.2,2.5-5,6.8-5.5,13H788z"/>
</g>
</svg>
