<?xml version="1.0" encoding="utf-8"?>
<!-- Generator: Adobe Illustrator 21.0.0, SVG Export Plug-In . SVG Version: 6.00 Build 0)  -->
<svg version="1.1" id="Layer_1" xmlns="http://www.w3.org/2000/svg" xmlns:xlink="http://www.w3.org/1999/xlink" x="0px" y="0px"
	 viewBox="0 0 900 900" style="enable-background:new 0 0 900 900;" xml:space="preserve">
<style type="text/css">
	.st0{fill:#01918C;}
	.st1{fill:#FFFFFF;}
	.st2{fill:#D48431;}
	.st3{fill:#D61921;}
	.st4{fill:#F5B828;}
	.st5{fill:#070403;}
	.st6{fill:#328DDD;}
	.st7{fill:#EA8932;}
	.st8{fill:#8A9298;}
	.st9{fill:#134A9F;}
	.st10{fill:#308BE3;}
	.st11{fill:#E12728;}
	.st12{fill:#FF0000;}
	.st13{fill:none;}
	.st14{fill:#C6C7C9;}
	.st15{fill:#020202;}
	.st16{fill:#060606;}
	.st17{fill:#FEFEFE;}
</style>
<circle cx="451" cy="450" r="444"/>
<circle class="st1" cx="451" cy="450" r="432.1"/>
<g>
	<g>
		<polygon class="st12" points="670.1,345.4 670.1,376.1 718.8,351.8 718.8,322.1 		"/>
		<polygon class="st12" points="719.4,354.4 719.4,381.9 764.4,353.3 764.4,323.2 		"/>
		<path class="st12" d="M687,414.1c0,0,63.1-17.3,92.2-48.6v36c0,0-17.5,17.5-28.1,18.5c-10.6,1.1-85.2,1.6-85.2,1.6L687,414.1z"/>
	</g>
	<rect x="621.8" y="447.7" width="25.4" height="122.1"/>
	<circle cx="634.5" cy="412.5" r="14.8"/>
	<path class="st12" d="M122.8,445.5V572h24.3V446C147.2,446,122.8,443.9,122.8,445.5z"/>
	<path class="st12" d="M308.1,446v27H190.6c0,0-42.3,4.8-48.7,52.4v-53.5c0,0,12.2-25.9,58.8-25.9C308.9,446,308.9,446.8,308.1,446z
		"/>
	<rect x="202.7" y="497.9" class="st12" width="73" height="23.8"/>
	<rect x="202.7" y="547.6" class="st12" width="108.9" height="23.8"/>
	<path class="st13" d="M534.1,468.7c-23.7,0-43,19.3-43,43c0,23.7,19.3,43,43,43c23.7,0,43-19.3,43-43
		C577.1,487.9,557.8,468.7,534.1,468.7z"/>
	<path d="M599.3,500.2V399.8h-24.8v59.5c-11.2-8.7-25.2-13.9-40.4-13.9c-36.5,0-66.3,29.7-66.3,66.3s29.7,66.3,66.3,66.3
		c32.6,0,59.7-23.7,65.2-54.8L599.3,500.2C599.3,500.2,599.3,500.2,599.3,500.2z M534.1,554.6c-23.7,0-43-19.3-43-43
		c0-23.7,19.3-43,43-43c23.7,0,43,19.3,43,43C577.1,535.3,557.8,554.6,534.1,554.6z"/>
	<path class="st12" d="M453.7,500.2V399.8h-24.8v59.5c-11.2-8.7-25.2-13.9-40.4-13.9c-36.5,0-66.3,29.7-66.3,66.3
		s29.7,66.3,66.3,66.3c32.6,0,59.7-23.7,65.2-54.8L453.7,500.2C453.7,500.2,453.7,500.2,453.7,500.2z M388.5,554.6
		c-23.7,0-43-19.3-43-43c0-23.7,19.3-43,43-43s43,19.3,43,43C431.5,535.3,412.2,554.6,388.5,554.6z"/>
</g>
</svg>
