<?xml version="1.0" encoding="utf-8"?>
<!-- Generator: Adobe Illustrator 21.0.0, SVG Export Plug-In . SVG Version: 6.00 Build 0)  -->
<svg version="1.1" id="Layer_1" xmlns="http://www.w3.org/2000/svg" xmlns:xlink="http://www.w3.org/1999/xlink" x="0px" y="0px"
	 viewBox="0 0 900 900" style="enable-background:new 0 0 900 900;" xml:space="preserve">
<style type="text/css">
	.st0{fill:#01918C;}
	.st1{fill:#FFFFFF;}
	.st2{fill:#D48431;}
	.st3{fill:#D61921;}
	.st4{fill:#F5B828;}
	.st5{fill:#070403;}
	.st6{fill:#328DDD;}
	.st7{fill:#EA8932;}
	.st8{fill:#8A9298;}
	.st9{fill:#134A9F;}
	.st10{fill:#308BE3;}
	.st11{fill:#E12728;}
	.st12{fill:#FF0000;}
	.st13{fill:none;}
	.st14{fill:#C6C7C9;}
	.st15{fill:#020202;}
	.st16{fill:#060606;}
	.st17{fill:#FEFEFE;}
</style>
<circle class="st7" cx="451" cy="450" r="444"/>
<circle class="st1" cx="451" cy="450" r="432.1"/>
<g>
	<g>
		<path class="st7" d="M435.8,302.1c2.6,0.8,5.3,1.1,8,2c14.4,4.9,24.5,18.5,25.3,33.6c0.5,9.3-1.7,17.8-6.4,25.8
			c-21.7,36.8-43.5,73.6-65.2,110.4c-6.7,11.3-13.1,22.9-20.2,34c-8.5,13.4-20.9,20.8-37.1,20.7c-10.3-0.1-19.1-4.2-26.7-11.2
			c0-0.3-0.1-0.5-0.4-0.6l0,0c-0.1-0.1-0.3-0.3-0.4-0.4l0,0c0-0.2-0.1-0.4-0.4-0.4l0,0c0-0.3-0.1-0.4-0.4-0.4l0,0
			c0.1-0.7-0.5-1-0.8-1.5c-5.5-7.2-8.1-15.5-8.1-24.4c0-7.8,2.1-15,6.1-21.8c7.5-12.8,15.1-25.6,22.6-38.4
			c3.2-5.4,6.3-10.9,9.5-16.3c0.4-0.7,0.9-1.3,1.3-2c17.2-29.2,34.4-58.4,51.7-87.6c6.1-10.3,15-17,26.5-20.2c1.9-0.5,3.9-1,5.9-1.4
			C429.8,302.1,432.8,302.1,435.8,302.1z"/>
		<path class="st7" d="M544.2,302.1c3.4,0.8,6.8,1.3,10,2.7c13.3,5.7,20.9,15.8,23.2,29.9c1.6,10.2-0.6,19.6-5.8,28.4
			c-28.3,47.9-56.5,95.8-84.9,143.7c-7,11.8-17.3,18.8-30.9,21.2c-20.3,3.6-39.9-10.3-43.4-30.7c-1.7-10.3-0.1-20,5.2-28.9
			c20.1-34.2,40.3-68.4,60.5-102.6c8.1-13.7,16.2-27.4,24.3-41.2c7.3-12.4,18-20,32.4-22.2c0.2,0,0.4-0.2,0.6-0.4
			C538.4,302.1,541.3,302.1,544.2,302.1z"/>
		<path class="st7" d="M654.5,302.1c2.8,0.7,5.7,1,8.4,2c14.3,5.2,22.8,15.5,25,30.4c1.5,10.1-0.4,19.8-5.8,28.9
			c-25.4,42.9-50.7,85.8-76.1,128.7c-3.9,6.6-7.3,13.5-12,19.5c-8.7,11.1-20.2,17-34.3,17.1c-18.9,0.2-35.1-14.6-37.1-33.5
			c-1-9.7,0.9-18.7,5.8-27.1c28.2-47.9,56.5-95.8,84.8-143.7c7.3-12.3,18-19.7,32.2-21.8c0.2,0,0.4-0.2,0.7-0.3
			C649,302.1,651.7,302.1,654.5,302.1z"/>
		<path class="st8" d="M341.4,413.3c-3.2,5.4-6.3,10.9-9.5,16.3c-7.5,12.8-15.1,25.6-22.6,38.4c-4,6.7-6.1,14-6.1,21.8
			c0,9,2.6,17.2,8.1,24.4c0.3,0.5,0.9,0.8,0.8,1.5c-1.9-0.7-2.8-2.5-3.9-4c-4.9-6.6-8.6-13.8-12.8-20.9
			c-21.4-36.2-42.8-72.4-64.2-108.7c-3.9-6.6-7.8-13.3-11.7-19.9c-3-5.1-4.9-10.6-5.5-16.5c0-0.3-0.2-0.6-0.3-0.9c0-2.6,0-5.3,0-7.9
			c0.4-0.4,0.3-0.8,0.4-1.3c2.1-14.6,9.7-25.1,23.4-30.9c3.3-1.4,6.8-1.8,10.2-2.6c2.8,0,5.5,0,8.3,0c0.2,0.1,0.4,0.3,0.6,0.4
			c14.1,2.1,24.8,9.4,32.1,21.6c9.6,16,19,32.1,28.4,48.1C325.1,385.9,333.2,399.6,341.4,413.3z"/>
	</g>
	<g>
		<path class="st8" d="M231,597l-17.2-53.6h13.3l6.5,22.7c1.8,6.4,3.5,12.5,4.8,19.2h0.2c1.3-6.4,3-12.8,4.8-18.9l6.8-22.9h12.9
			l-18,53.6H231z"/>
		<path class="st8" d="M278.9,547.3c0,3.3-2.5,6-6.5,6c-3.8,0-6.4-2.7-6.3-6c-0.1-3.5,2.5-6.1,6.4-6.1
			C276.3,541.2,278.8,543.8,278.9,547.3z M266.4,597v-38.9h12.1V597H266.4z"/>
		<path class="st8" d="M297.5,581.4c0.4,5,5.3,7.4,11,7.4c4.1,0,7.5-0.6,10.7-1.6l1.6,8.2c-4,1.6-8.8,2.4-14.1,2.4
			c-13.2,0-20.7-7.6-20.7-19.8c0-9.9,6.1-20.7,19.6-20.7c12.6,0,17.3,9.8,17.3,19.4c0,2.1-0.2,3.9-0.4,4.8H297.5z M311.7,573.2
			c0-2.9-1.3-7.9-6.8-7.9c-5.1,0-7.2,4.6-7.5,7.9H311.7z"/>
		<path class="st8" d="M343.7,547v11.1h8.7v8.9h-8.7v14.1c0,4.7,1.1,6.8,4.8,6.8c1.5,0,2.7-0.2,3.6-0.3l0.1,9.1
			c-1.6,0.6-4.5,1-7.9,1c-3.9,0-7.2-1.4-9.1-3.3c-2.2-2.3-3.3-6-3.3-11.5V567h-5.2v-8.9h5.2v-8.4L343.7,547z"/>
		<path class="st8" d="M359.4,570.5c0-4.9-0.2-9-0.3-12.4h10.5l0.6,5.3h0.2c1.6-2.5,5.6-6.2,12-6.2c7.9,0,13.9,5.2,13.9,16.7v23
			h-12.1v-21.5c0-5-1.8-8.4-6.1-8.4c-3.3,0-5.3,2.3-6.1,4.5c-0.3,0.7-0.5,1.9-0.5,3V597h-12.1V570.5z"/>
		<path class="st8" d="M428.1,597l-0.7-3.9h-0.2c-2.5,3.1-6.5,4.8-11.1,4.8c-7.9,0-12.6-5.7-12.6-11.9c0-10.1,9.1-14.9,22.8-14.9
			v-0.6c0-2.1-1.1-5-7.1-5c-4,0-8.2,1.4-10.7,2.9l-2.2-7.8c2.7-1.5,8-3.4,15.1-3.4c13,0,17.1,7.6,17.1,16.8v13.5
			c0,3.7,0.2,7.3,0.6,9.5H428.1z M426.6,578.6c-6.4-0.1-11.3,1.4-11.3,6.1c0,3.1,2.1,4.6,4.8,4.6c3,0,5.5-2,6.3-4.4
			c0.2-0.6,0.2-1.4,0.2-2.1V578.6z"/>
		<path class="st8" d="M447.9,570.5c0-4.9-0.2-9-0.3-12.4h10.2l0.6,5.2h0.2c1.7-2.5,5.1-6.1,11.8-6.1c5,0,9,2.5,10.6,6.6h0.2
			c1.4-2,3.2-3.6,5-4.7c2.1-1.3,4.5-1.9,7.4-1.9c7.5,0,13.1,5.2,13.1,16.8V597h-11.8v-21.1c0-5.6-1.8-8.9-5.7-8.9
			c-2.8,0-4.8,1.9-5.6,4.2c-0.3,0.9-0.5,2.1-0.5,3.1V597h-11.8v-21.8c0-4.9-1.7-8.3-5.6-8.3c-3.1,0-4.9,2.4-5.6,4.4
			c-0.4,1-0.5,2.1-0.5,3V597h-11.8V570.5z"/>
		<path class="st8" d="M554.7,577.1c0,14.2-10.1,20.7-20.5,20.7c-11.4,0-20.1-7.5-20.1-20c0-12.6,8.3-20.6,20.7-20.6
			C546.8,557.3,554.7,565.5,554.7,577.1z M526.6,577.5c0,6.7,2.8,11.7,7.9,11.7c4.7,0,7.7-4.7,7.7-11.7c0-5.8-2.2-11.7-7.7-11.7
			C528.7,565.8,526.6,571.8,526.6,577.5z"/>
		<path class="st8" d="M561.9,597c0.2-2.5,0.3-7.2,0.3-11.6v-44.8h12.1v22.2h0.2c2.3-3.3,6.4-5.5,11.8-5.5c9.3,0,16.1,7.7,16.1,19.6
			c0,14-8.9,21-17.8,21c-4.5,0-8.9-1.7-11.7-6.3h-0.2l-0.5,5.4H561.9z M574.3,580.5c0,0.8,0.1,1.5,0.2,2.1c0.8,3.3,3.6,5.7,7.1,5.7
			c5.2,0,8.3-4,8.3-11c0-6-2.7-10.8-8.3-10.8c-3.3,0-6.3,2.5-7.1,6c-0.2,0.7-0.2,1.4-0.2,2.2V580.5z"/>
		<path class="st8" d="M622.3,547.3c0,3.3-2.5,6-6.5,6c-3.8,0-6.4-2.7-6.3-6c-0.1-3.5,2.5-6.1,6.4-6.1
			C619.7,541.2,622.2,543.8,622.3,547.3z M609.8,597v-38.9h12.1V597H609.8z"/>
		<path class="st8" d="M631.6,540.6h12.1V597h-12.1V540.6z"/>
		<path class="st8" d="M662.7,581.4c0.4,5,5.3,7.4,11,7.4c4.1,0,7.5-0.6,10.7-1.6l1.6,8.2c-4,1.6-8.8,2.4-14.1,2.4
			c-13.2,0-20.7-7.6-20.7-19.8c0-9.9,6.1-20.7,19.6-20.7c12.6,0,17.3,9.8,17.3,19.4c0,2.1-0.2,3.9-0.4,4.8H662.7z M677,573.2
			c0-2.9-1.3-7.9-6.8-7.9c-5.1,0-7.2,4.6-7.5,7.9H677z"/>
	</g>
</g>
</svg>
